<?xml version="1.0" encoding="utf-8"?>
<svg width="512" height="512" viewBox="0 0 512 512" fill="none" stroke="none" version="1.1" xmlns:xlink="http://www.w3.org/1999/xlink" xmlns="http://www.w3.org/2000/svg">
  <defs>
    <path id="path_1" d="M256 0L307.2 0C378.887 0 414.73 0 442.111 13.9512Q446.592 16.2343 450.88 18.8621Q455.168 21.4898 459.237 24.4458Q463.305 27.4019 467.129 30.668Q470.954 33.9342 474.51 37.4903Q478.066 41.0465 481.332 44.8706Q484.598 48.6948 487.554 52.7635Q490.51 56.8321 493.138 61.1202Q495.766 65.4082 498.049 69.8892C512 97.2699 512 133.113 512 204.8L512 307.2C512 378.887 512 414.73 498.049 442.111Q495.766 446.592 493.138 450.88Q490.51 455.168 487.554 459.237Q484.598 463.305 481.332 467.129Q478.066 470.954 474.51 474.51Q470.954 478.066 467.129 481.332Q463.305 484.598 459.237 487.554Q455.168 490.51 450.88 493.138Q446.592 495.766 442.111 498.049C414.73 512 378.887 512 307.2 512L204.8 512C133.113 512 97.2699 512 69.8892 498.049Q65.4082 495.766 61.1202 493.138Q56.8322 490.51 52.7635 487.554Q48.6949 484.598 44.8707 481.332Q41.0465 478.066 37.4904 474.51Q33.9342 470.954 30.6681 467.129Q27.4019 463.305 24.4458 459.237Q21.4898 455.168 18.8621 450.88Q16.2344 446.592 13.9512 442.111C0 414.73 0 378.887 0 307.2L0 204.8C0 133.113 0 97.2699 13.9512 69.8892Q16.2344 65.4082 18.8621 61.1202Q21.4898 56.8321 24.4458 52.7635Q27.4019 48.6948 30.668 44.8707Q33.9342 41.0465 37.4903 37.4903Q41.0464 33.9342 44.8706 30.668Q48.6948 27.4019 52.7635 24.4458Q56.8321 21.4898 61.1202 18.8621Q65.4082 16.2344 69.8892 13.9512C97.2699 0 133.113 0 204.8 0L256 0Z" />
    <rect id="rect_2" x="0" y="0" width="512" height="512" />
    <clipPath id="clip_path_3">
      <use xlink:href="#rect_2" />
    </clipPath>
  </defs>
  <g id="favicon" opacity="1" clip-path="url(#clip_path_3)">
    <g>
      <use xlink:href="#path_1" style="fill:#FFFFFF;fill-rule:evenodd;mix-blend-mode:normal;" />
      <g>
        <g style="mix-blend-mode:normal;" transform="translate(-55 0)">
          <path d="M322.266 368.945L351.562 398.047L489.453 260.156L351.562 122.266L322.266 151.367L410.156 239.062L42.5781 239.062L42.5781 281.445L410.156 281.445L322.266 368.945Z" style="fill:#000000;" />
        </g>
      </g>
    </g>
  </g>
</svg>