<svg width="1920" height="1080" viewBox="0 0 192 108" fill="none" stroke="none" xmlns="http://www.w3.org/2000/svg">
    <filter color-interpolation-filters="sRGB" filterUnits="userSpaceOnUse" id="blur">
        <feGaussianBlur stdDeviation="30"/>
    </filter>
    <rect width="100%" height="100%" fill="#000"/>
    <ellipse cx="96" cy="108" rx="98" ry="20" fill="#004CFF" filter="url(#blur)"/>
    <g style="mix-blend-mode:normal;" transform="translate(49 32)">
        <path d="M1.43182 12.669L1.43182 8.69318L22.321 8.69318L22.321 12.669L14.2287 12.669L14.2287 34.875L9.52415 34.875L9.52415 12.669L1.43182 12.669ZM31.1602 35.2585Q28.2071 35.2585 26.0658 34.0185Q23.9244 32.7784 22.7739 30.5156Q21.6233 28.2528 21.6233 25.1719Q21.6233 22.142 22.7739 19.8473Q23.9244 17.5526 26.0146 16.2678Q28.1048 14.983 30.9173 14.983Q33.3335 14.983 35.379 16.0249Q37.4244 17.0668 38.6581 19.2592Q39.8918 21.4517 39.8918 24.9034L39.8918 26.3224L26.2128 26.3224Q26.2511 28.8409 27.6126 30.2472Q28.9741 31.6534 31.2241 31.6534Q32.7199 31.6534 33.8129 31.0078Q34.906 30.3622 35.379 29.1222L39.7 29.608Q39.0864 32.1648 36.8428 33.7116Q34.5991 35.2585 31.1602 35.2585ZM26.2256 23.2031L35.4557 23.2031Q35.4429 21.196 34.2092 19.892Q32.9756 18.5881 30.9813 18.5881Q28.9102 18.5881 27.619 19.956Q26.3278 21.3239 26.2256 23.2031ZM46.4043 15.2386L50.3673 22.4872L54.3943 15.2386L59.2906 15.2386L53.3716 25.0568L59.3929 34.875L54.5222 34.875L50.3673 27.8054L46.2509 34.875L41.3418 34.875L47.3247 25.0568L41.4952 15.2386L46.4043 15.2386ZM71.8756 15.2386L71.8756 18.8182L68.002 18.8182L68.002 28.9688Q68.002 30.3622 68.6156 30.8033Q69.2293 31.2443 70.0986 31.2443Q70.5332 31.2443 70.8976 31.1804Q71.2619 31.1165 71.4537 31.0653L72.2335 34.6832Q71.8628 34.8111 71.1788 34.9645Q70.4949 35.1179 69.5105 35.1435Q66.9026 35.2202 65.132 33.8651Q63.3614 32.5099 63.3742 29.7358L63.3742 18.8182L60.5872 18.8182L60.5872 15.2386L63.3742 15.2386L63.3742 10.5341L68.002 10.5341L68.002 15.2386L71.8756 15.2386Z"
              style="fill:#FFFFFF;"/>
    </g>
    <g style="mix-blend-mode:normal;" transform="translate(13 83)">
        <path d="M1.41477 11.625L0.306818 11.625L3.51136 2.89773L4.60227 2.89773L7.80682 11.625L6.69886 11.625L5.82102 9.15341L2.29261 9.15341L1.41477 11.625ZM2.625 8.21591L5.48864 8.21591L4.09091 4.27841L4.02273 4.27841L2.625 8.21591ZM13.9432 5.07955Q13.8665 4.43182 13.321 4.07386Q12.7756 3.71591 11.983 3.71591Q11.1136 3.71591 10.5852 4.12713Q10.0568 4.53835 10.0568 5.16477Q10.0568 5.63352 10.3445 5.92116Q10.6321 6.20881 11.0263 6.36861Q11.4205 6.52841 11.7443 6.61364L12.6307 6.85227Q12.9716 6.94176 13.3913 7.09943Q13.8111 7.2571 14.1967 7.5277Q14.5824 7.7983 14.8338 8.22017Q15.0852 8.64205 15.0852 9.25568Q15.0852 9.96307 14.7166 10.5341Q14.348 11.1051 13.6428 11.4418Q12.9375 11.7784 11.9318 11.7784Q10.5256 11.7784 9.69886 11.1136Q8.87216 10.4489 8.79545 9.375L9.88636 9.375Q9.92898 9.86932 10.2209 10.1911Q10.5128 10.5128 10.9624 10.6683Q11.4119 10.8239 11.9318 10.8239Q12.5369 10.8239 13.0185 10.6257Q13.5 10.4276 13.7813 10.0717Q14.0625 9.71591 14.0625 9.23864Q14.0625 8.80398 13.8196 8.53125Q13.5767 8.25852 13.1804 8.08807Q12.7841 7.91761 12.3239 7.78977L11.25 7.48295Q10.2273 7.18892 9.63068 6.64347Q9.03409 6.09801 9.03409 5.21591Q9.03409 4.48295 9.43253 3.93537Q9.83097 3.38778 10.5064 3.0831Q11.1818 2.77841 12.017 2.77841Q12.8608 2.77841 13.517 3.07883Q14.1733 3.37926 14.5589 3.89915Q14.9446 4.41903 14.9659 5.07955L13.9432 5.07955ZM23.8466 5.625L22.7898 5.625Q22.6619 5.01989 22.2997 4.60653Q21.9375 4.19318 21.4261 3.98011Q20.9148 3.76705 20.3352 3.76705Q19.5426 3.76705 18.9013 4.16761Q18.2599 4.56818 17.8828 5.34801Q17.5057 6.12784 17.5057 7.26136Q17.5057 8.39489 17.8828 9.17472Q18.2599 9.95455 18.9013 10.3551Q19.5426 10.7557 20.3352 10.7557Q20.9148 10.7557 21.4261 10.5426Q21.9375 10.3295 22.2997 9.91619Q22.6619 9.50284 22.7898 8.89773L23.8466 8.89773Q23.6847 9.79261 23.1861 10.4297Q22.6875 11.0668 21.9503 11.4055Q21.2131 11.7443 20.3352 11.7443Q19.2188 11.7443 18.3494 11.1989Q17.4801 10.6534 16.9815 9.64773Q16.483 8.64205 16.483 7.26136Q16.483 5.88068 16.9815 4.875Q17.4801 3.86932 18.3494 3.32386Q19.2188 2.77841 20.3352 2.77841Q21.2131 2.77841 21.9503 3.11719Q22.6875 3.45597 23.1861 4.09304Q23.6847 4.73011 23.8466 5.625ZM26.608 2.89773L26.608 11.625L25.5511 11.625L25.5511 2.89773L26.608 2.89773ZM29.7784 2.89773L29.7784 11.625L28.7216 11.625L28.7216 2.89773L29.7784 2.89773Z"
              style="fill:#FFFFFF;"/>
    </g>
    <g style="mix-blend-mode:normal;" transform="translate(138 83)">
        <path d="M6.78409 2.89773L7.84091 2.89773L7.84091 8.67614Q7.84091 9.57102 7.42117 10.272Q7.00142 10.973 6.23864 11.3757Q5.47585 11.7784 4.44886 11.7784Q3.42188 11.7784 2.65909 11.3757Q1.89631 10.973 1.47656 10.272Q1.05682 9.57102 1.05682 8.67614L1.05682 2.89773L2.11364 2.89773L2.11364 8.59091Q2.11364 9.54972 2.7358 10.1697Q3.35795 10.7898 4.44886 10.7898Q5.54403 10.7898 6.16406 10.1697Q6.78409 9.54972 6.78409 8.59091L6.78409 2.89773ZM10.8239 7.6875L10.8239 11.625L9.81818 11.625L9.81818 5.07955L10.7898 5.07955L10.7898 6.10227L10.875 6.10227Q11.1051 5.60369 11.5739 5.29901Q12.0426 4.99432 12.7841 4.99432Q13.777 4.99432 14.3885 5.60369Q15 6.21307 15 7.46591L15 11.625L13.9943 11.625L13.9943 7.53409Q13.9943 6.76278 13.5938 6.33026Q13.1932 5.89773 12.4943 5.89773Q11.7741 5.89773 11.299 6.36435Q10.8239 6.83097 10.8239 7.6875ZM16.8409 11.625L16.8409 5.07955L17.8466 5.07955L17.8466 11.625L16.8409 11.625ZM17.3523 3.98864Q17.0582 3.98864 16.8473 3.78835Q16.6364 3.58807 16.6364 3.30682Q16.6364 3.02557 16.8473 2.82528Q17.0582 2.625 17.3523 2.625Q17.6463 2.625 17.8572 2.82528Q18.0682 3.02557 18.0682 3.30682Q18.0682 3.58807 17.8572 3.78835Q17.6463 3.98864 17.3523 3.98864ZM22.3466 11.7614Q21.4261 11.7614 20.7614 11.3267Q20.0966 10.892 19.7386 10.1293Q19.3807 9.36648 19.3807 8.38636Q19.3807 7.3892 19.7493 6.62429Q20.1179 5.85938 20.7805 5.42685Q21.4432 4.99432 22.3295 4.99432Q23.0199 4.99432 23.5739 5.25Q24.1278 5.50568 24.4815 5.96591Q24.8352 6.42614 24.9205 7.03977L23.9148 7.03977Q23.7997 6.59233 23.4055 6.24503Q23.0114 5.89773 22.3466 5.89773Q21.4645 5.89773 20.9254 6.56889Q20.3864 7.24006 20.3864 8.35227Q20.3864 9.49006 20.919 10.174Q21.4517 10.858 22.3466 10.858Q22.9347 10.858 23.3544 10.5554Q23.7742 10.2528 23.9148 9.71591L24.9205 9.71591Q24.8352 10.2955 24.5007 10.7578Q24.1662 11.2202 23.6186 11.4908Q23.071 11.7614 22.3466 11.7614ZM29.0455 11.7614Q28.1591 11.7614 27.4922 11.3395Q26.8253 10.9176 26.4524 10.1591Q26.0795 9.40057 26.0795 8.38636Q26.0795 7.36364 26.4524 6.60085Q26.8253 5.83807 27.4922 5.41619Q28.1591 4.99432 29.0455 4.99432Q29.9318 4.99432 30.5987 5.41619Q31.2656 5.83807 31.6385 6.60085Q32.0114 7.36364 32.0114 8.38636Q32.0114 9.40057 31.6385 10.1591Q31.2656 10.9176 30.5987 11.3395Q29.9318 11.7614 29.0455 11.7614ZM29.0455 10.858Q29.7188 10.858 30.1534 10.5128Q30.5881 10.1676 30.7969 9.60511Q31.0057 9.04261 31.0057 8.38636Q31.0057 7.73011 30.7969 7.16335Q30.5881 6.59659 30.1534 6.24716Q29.7188 5.89773 29.0455 5.89773Q28.3722 5.89773 27.9375 6.24716Q27.5028 6.59659 27.294 7.16335Q27.0852 7.73011 27.0852 8.38636Q27.0852 9.04261 27.294 9.60511Q27.5028 10.1676 27.9375 10.5128Q28.3722 10.858 29.0455 10.858ZM36.017 11.7614Q35.1989 11.7614 34.5724 11.3459Q33.946 10.9304 33.5923 10.1697Q33.2386 9.40909 33.2386 8.36932Q33.2386 7.33807 33.5923 6.57955Q33.946 5.82102 34.5767 5.40767Q35.2074 4.99432 36.0341 4.99432Q36.6733 4.99432 37.0462 5.20526Q37.419 5.41619 37.6172 5.68253Q37.8153 5.94886 37.9261 6.11932L38.0114 6.11932L38.0114 2.89773L39.0171 2.89773L39.0171 11.625L38.0455 11.625L38.0455 10.6193L37.9261 10.6193Q37.8153 10.7983 37.6108 11.0689Q37.4063 11.3395 37.027 11.5504Q36.6477 11.7614 36.017 11.7614ZM36.1534 10.858Q37.0611 10.858 37.5447 10.1612Q38.0284 9.46449 38.0284 8.35227Q38.0284 7.25284 37.5511 6.57528Q37.0739 5.89773 36.1534 5.89773Q35.5142 5.89773 35.0902 6.22372Q34.6662 6.54972 34.4553 7.10582Q34.2443 7.66193 34.2443 8.35227Q34.2443 9.05114 34.4595 9.62003Q34.6747 10.1889 35.0987 10.5234Q35.5227 10.858 36.1534 10.858ZM43.7386 11.7614Q42.7926 11.7614 42.1087 11.3416Q41.4247 10.9219 41.0561 10.1655Q40.6875 9.40909 40.6875 8.40341Q40.6875 7.39773 41.0561 6.62855Q41.4247 5.85938 42.0874 5.42685Q42.75 4.99432 43.6364 4.99432Q44.1477 4.99432 44.6463 5.16477Q45.1449 5.33523 45.554 5.71662Q45.9631 6.09801 46.206 6.72443Q46.4489 7.35085 46.4489 8.26705L46.4489 8.69318L41.6974 8.69318Q41.7315 9.74148 42.2919 10.2997Q42.8523 10.858 43.7386 10.858Q44.331 10.858 44.7571 10.6023Q45.1832 10.3466 45.375 9.83523L46.3466 10.108Q46.1165 10.8494 45.4261 11.3054Q44.7358 11.7614 43.7386 11.7614ZM41.6974 7.82386L45.4261 7.82386Q45.4261 6.9929 44.9403 6.44531Q44.4546 5.89773 43.6364 5.89773Q43.0611 5.89773 42.6392 6.16619Q42.2173 6.43466 41.9744 6.87571Q41.7315 7.31676 41.6974 7.82386Z"
              style="fill:#FFFFFF;"/>
    </g>
    <g style="mix-blend-mode:normal;" transform="translate(13 11)">
        <path d="M3.40771 5.19873L0.601563 5.19873L0.601563 4.64502L1.75 4.64502L1.75 1.38428L0.680176 1.96533L0.461426 1.45947L1.8833 0.710938L2.40967 0.710938L2.40967 4.64502L3.40771 4.64502L3.40771 5.19873ZM7.39648 2.9668Q7.39648 3.47949 7.29395 3.90161Q7.19141 4.32373 6.98291 4.62622Q6.77441 4.92871 6.46509 5.09448Q6.15576 5.26025 5.73877 5.26025Q5.37988 5.26025 5.08594 5.12524Q4.79199 4.99023 4.5835 4.70996Q4.375 4.42969 4.26221 3.99561Q4.14941 3.56152 4.14941 2.9668Q4.14941 2.4541 4.25366 2.03027Q4.35791 1.60645 4.5647 1.30396Q4.77148 1.00146 5.08252 0.835693Q5.39355 0.669922 5.80713 0.669922Q6.16602 0.669922 6.45996 0.804932Q6.75391 0.939941 6.9624 1.22192Q7.1709 1.50391 7.28369 1.93799Q7.39648 2.37207 7.39648 2.9668ZM6.79492 2.9873Q6.79492 2.87109 6.78638 2.75659Q6.77783 2.64209 6.76758 2.53271L4.87744 3.9375Q4.92871 4.11523 5.00732 4.26563Q5.08594 4.41602 5.19702 4.52368Q5.30811 4.63135 5.44995 4.69116Q5.5918 4.75098 5.77295 4.75098Q6.00537 4.75098 6.19507 4.63818Q6.38477 4.52539 6.51807 4.30322Q6.65137 4.08105 6.72314 3.75122Q6.79492 3.42139 6.79492 2.9873ZM4.75098 2.94629Q4.75098 3.05225 4.75269 3.1582Q4.75439 3.26416 4.76465 3.36328L6.65479 1.96533Q6.60352 1.79102 6.5249 1.64746Q6.44629 1.50391 6.33691 1.39966Q6.22754 1.29541 6.0874 1.2373Q5.94727 1.1792 5.77295 1.1792Q5.54053 1.1792 5.35083 1.29199Q5.16113 1.40479 5.02783 1.62866Q4.89453 1.85254 4.82275 2.18237Q4.75098 2.51221 4.75098 2.94629ZM11.105 5.19873L8.29883 5.19873L8.29883 4.64502L9.44727 4.64502L9.44727 1.38428L8.37744 1.96533L8.15869 1.45947L9.58057 0.710938L10.1069 0.710938L10.1069 4.64502L11.105 4.64502L11.105 5.19873ZM15.0938 2.9668Q15.0938 3.47949 14.9912 3.90161Q14.8887 4.32373 14.6802 4.62622Q14.4717 4.92871 14.1624 5.09448Q13.853 5.26025 13.436 5.26025Q13.0771 5.26025 12.7832 5.12524Q12.4893 4.99023 12.2808 4.70996Q12.0723 4.42969 11.9595 3.99561Q11.8467 3.56152 11.8467 2.9668Q11.8467 2.4541 11.9509 2.03027Q12.0552 1.60645 12.262 1.30396Q12.4688 1.00146 12.7798 0.835693Q13.0908 0.669922 13.5044 0.669922Q13.8633 0.669922 14.1572 0.804932Q14.4512 0.939941 14.6597 1.22192Q14.8682 1.50391 14.981 1.93799Q15.0938 2.37207 15.0938 2.9668ZM14.4922 2.9873Q14.4922 2.87109 14.4836 2.75659Q14.4751 2.64209 14.4648 2.53271L12.5747 3.9375Q12.626 4.11523 12.7046 4.26563Q12.7832 4.41602 12.8943 4.52368Q13.0054 4.63135 13.1472 4.69116Q13.2891 4.75098 13.4702 4.75098Q13.7026 4.75098 13.8923 4.63818Q14.082 4.52539 14.2153 4.30322Q14.3486 4.08105 14.4204 3.75122Q14.4922 3.42139 14.4922 2.9873ZM12.4482 2.94629Q12.4482 3.05225 12.45 3.1582Q12.4517 3.26416 12.4619 3.36328L14.3521 1.96533Q14.3008 1.79102 14.2222 1.64746Q14.1436 1.50391 14.0342 1.39966Q13.9248 1.29541 13.7847 1.2373Q13.6445 1.1792 13.4702 1.1792Q13.2378 1.1792 13.0481 1.29199Q12.8584 1.40479 12.7251 1.62866Q12.5918 1.85254 12.52 2.18237Q12.4482 2.51221 12.4482 2.94629ZM18.8022 5.19873L15.9961 5.19873L15.9961 4.64502L17.1445 4.64502L17.1445 1.38428L16.0747 1.96533L15.856 1.45947L17.2778 0.710938L17.8042 0.710938L17.8042 4.64502L18.8022 4.64502L18.8022 5.19873ZM22.791 2.9668Q22.791 3.47949 22.6885 3.90161Q22.5859 4.32373 22.3774 4.62622Q22.1689 4.92871 21.8596 5.09448Q21.5503 5.26025 21.1333 5.26025Q20.7744 5.26025 20.4805 5.12524Q20.1865 4.99023 19.978 4.70996Q19.7695 4.42969 19.6567 3.99561Q19.5439 3.56152 19.5439 2.9668Q19.5439 2.4541 19.6482 2.03027Q19.7524 1.60645 19.9592 1.30396Q20.166 1.00146 20.4771 0.835693Q20.7881 0.669922 21.2017 0.669922Q21.5605 0.669922 21.8545 0.804932Q22.1484 0.939941 22.3569 1.22192Q22.5654 1.50391 22.6782 1.93799Q22.791 2.37207 22.791 2.9668ZM22.1895 2.9873Q22.1895 2.87109 22.1809 2.75659Q22.1724 2.64209 22.1621 2.53271L20.272 3.9375Q20.3232 4.11523 20.4019 4.26563Q20.4805 4.41602 20.5916 4.52368Q20.7026 4.63135 20.8445 4.69116Q20.9863 4.75098 21.1675 4.75098Q21.3999 4.75098 21.5896 4.63818Q21.7793 4.52539 21.9126 4.30322Q22.0459 4.08105 22.1177 3.75122Q22.1895 3.42139 22.1895 2.9873ZM20.1455 2.94629Q20.1455 3.05225 20.1472 3.1582Q20.1489 3.26416 20.1592 3.36328L22.0493 1.96533Q21.998 1.79102 21.9194 1.64746Q21.8408 1.50391 21.7314 1.39966Q21.6221 1.29541 21.4819 1.2373Q21.3418 1.1792 21.1675 1.1792Q20.9351 1.1792 20.7454 1.29199Q20.5557 1.40479 20.4224 1.62866Q20.2891 1.85254 20.2173 2.18237Q20.1455 2.51221 20.1455 2.94629ZM26.6396 2.9668Q26.6396 3.47949 26.5371 3.90161Q26.4346 4.32373 26.2261 4.62622Q26.0176 4.92871 25.7083 5.09448Q25.3989 5.26025 24.9819 5.26025Q24.623 5.26025 24.3291 5.12524Q24.0352 4.99023 23.8267 4.70996Q23.6182 4.42969 23.5054 3.99561Q23.3926 3.56152 23.3926 2.9668Q23.3926 2.4541 23.4968 2.03027Q23.6011 1.60645 23.8079 1.30396Q24.0146 1.00146 24.3257 0.835693Q24.6367 0.669922 25.0503 0.669922Q25.4092 0.669922 25.7031 0.804932Q25.9971 0.939941 26.2056 1.22192Q26.4141 1.50391 26.5269 1.93799Q26.6396 2.37207 26.6396 2.9668ZM26.0381 2.9873Q26.0381 2.87109 26.0295 2.75659Q26.021 2.64209 26.0107 2.53271L24.1206 3.9375Q24.1719 4.11523 24.2505 4.26563Q24.3291 4.41602 24.4402 4.52368Q24.5513 4.63135 24.6931 4.69116Q24.835 4.75098 25.0161 4.75098Q25.2485 4.75098 25.4382 4.63818Q25.6279 4.52539 25.7612 4.30322Q25.8945 4.08105 25.9663 3.75122Q26.0381 3.42139 26.0381 2.9873ZM23.9941 2.94629Q23.9941 3.05225 23.9958 3.1582Q23.9976 3.26416 24.0078 3.36328L25.8979 1.96533Q25.8467 1.79102 25.7681 1.64746Q25.6895 1.50391 25.5801 1.39966Q25.4707 1.29541 25.3306 1.2373Q25.1904 1.1792 25.0161 1.1792Q24.7837 1.1792 24.594 1.29199Q24.4043 1.40479 24.271 1.62866Q24.1377 1.85254 24.0659 2.18237Q23.9941 2.51221 23.9941 2.94629ZM34.1968 5.19873L31.3906 5.19873L31.3906 4.64502L32.5391 4.64502L32.5391 1.38428L31.4692 1.96533L31.2505 1.45947L32.6724 0.710938L33.1987 0.710938L33.1987 4.64502L34.1968 4.64502L34.1968 5.19873ZM38.0454 5.19873L35.2393 5.19873L35.2393 4.64502L36.3877 4.64502L36.3877 1.38428L35.3179 1.96533L35.0991 1.45947L36.521 0.710938L37.0474 0.710938L37.0474 4.64502L38.0454 4.64502L38.0454 5.19873ZM42.0342 2.9668Q42.0342 3.47949 41.9316 3.90161Q41.8291 4.32373 41.6206 4.62622Q41.4121 4.92871 41.1028 5.09448Q40.7935 5.26025 40.3765 5.26025Q40.0176 5.26025 39.7236 5.12524Q39.4297 4.99023 39.2212 4.70996Q39.0127 4.42969 38.8999 3.99561Q38.7871 3.56152 38.7871 2.9668Q38.7871 2.4541 38.8914 2.03027Q38.9956 1.60645 39.2024 1.30396Q39.4092 1.00146 39.7202 0.835693Q40.0313 0.669922 40.4448 0.669922Q40.8037 0.669922 41.0977 0.804932Q41.3916 0.939941 41.6001 1.22192Q41.8086 1.50391 41.9214 1.93799Q42.0342 2.37207 42.0342 2.9668ZM41.4326 2.9873Q41.4326 2.87109 41.4241 2.75659Q41.4155 2.64209 41.4053 2.53271L39.5151 3.9375Q39.5664 4.11523 39.645 4.26563Q39.7236 4.41602 39.8347 4.52368Q39.9458 4.63135 40.0876 4.69116Q40.2295 4.75098 40.4106 4.75098Q40.6431 4.75098 40.8328 4.63818Q41.0225 4.52539 41.1558 4.30322Q41.2891 4.08105 41.3608 3.75122Q41.4326 3.42139 41.4326 2.9873ZM39.3887 2.94629Q39.3887 3.05225 39.3904 3.1582Q39.3921 3.26416 39.4023 3.36328L41.2925 1.96533Q41.2412 1.79102 41.1626 1.64746Q41.084 1.50391 40.9746 1.39966Q40.8652 1.29541 40.7251 1.2373Q40.585 1.1792 40.4106 1.1792Q40.1782 1.1792 39.9885 1.29199Q39.7988 1.40479 39.6655 1.62866Q39.5322 1.85254 39.4604 2.18237Q39.3887 2.51221 39.3887 2.94629ZM45.8828 2.9668Q45.8828 3.47949 45.7803 3.90161Q45.6777 4.32373 45.4692 4.62622Q45.2607 4.92871 44.9514 5.09448Q44.6421 5.26025 44.2251 5.26025Q43.8662 5.26025 43.5723 5.12524Q43.2783 4.99023 43.0698 4.70996Q42.8613 4.42969 42.7485 3.99561Q42.6357 3.56152 42.6357 2.9668Q42.6357 2.4541 42.74 2.03027Q42.8442 1.60645 43.051 1.30396Q43.2578 1.00146 43.5688 0.835693Q43.8799 0.669922 44.2935 0.669922Q44.6523 0.669922 44.9463 0.804932Q45.2402 0.939941 45.4487 1.22192Q45.6572 1.50391 45.77 1.93799Q45.8828 2.37207 45.8828 2.9668ZM45.2813 2.9873Q45.2813 2.87109 45.2727 2.75659Q45.2642 2.64209 45.2539 2.53271L43.3638 3.9375Q43.415 4.11523 43.4937 4.26563Q43.5723 4.41602 43.6833 4.52368Q43.7944 4.63135 43.9363 4.69116Q44.0781 4.75098 44.2593 4.75098Q44.4917 4.75098 44.6814 4.63818Q44.8711 4.52539 45.0044 4.30322Q45.1377 4.08105 45.2095 3.75122Q45.2813 3.42139 45.2813 2.9873ZM43.2373 2.94629Q43.2373 3.05225 43.239 3.1582Q43.2407 3.26416 43.251 3.36328L45.1411 1.96533Q45.0898 1.79102 45.0112 1.64746Q44.9326 1.50391 44.8232 1.39966Q44.7139 1.29541 44.5737 1.2373Q44.4336 1.1792 44.2593 1.1792Q44.0269 1.1792 43.8372 1.29199Q43.6475 1.40479 43.5142 1.62866Q43.3809 1.85254 43.3091 2.18237Q43.2373 2.51221 43.2373 2.94629ZM49.5913 5.19873L46.7852 5.19873L46.7852 4.64502L47.9336 4.64502L47.9336 1.38428L46.8638 1.96533L46.645 1.45947L48.0669 0.710938L48.5933 0.710938L48.5933 4.64502L49.5913 4.64502L49.5913 5.19873ZM53.5801 2.9668Q53.5801 3.47949 53.4775 3.90161Q53.375 4.32373 53.1665 4.62622Q52.958 4.92871 52.6487 5.09448Q52.3394 5.26025 51.9224 5.26025Q51.5635 5.26025 51.2695 5.12524Q50.9756 4.99023 50.7671 4.70996Q50.5586 4.42969 50.4458 3.99561Q50.333 3.56152 50.333 2.9668Q50.333 2.4541 50.4373 2.03027Q50.5415 1.60645 50.7483 1.30396Q50.9551 1.00146 51.2661 0.835693Q51.5771 0.669922 51.9907 0.669922Q52.3496 0.669922 52.6436 0.804932Q52.9375 0.939941 53.146 1.22192Q53.3545 1.50391 53.4673 1.93799Q53.5801 2.37207 53.5801 2.9668ZM52.9785 2.9873Q52.9785 2.87109 52.97 2.75659Q52.9614 2.64209 52.9512 2.53271L51.061 3.9375Q51.1123 4.11523 51.1909 4.26563Q51.2695 4.41602 51.3806 4.52368Q51.4917 4.63135 51.6335 4.69116Q51.7754 4.75098 51.9565 4.75098Q52.189 4.75098 52.3787 4.63818Q52.5684 4.52539 52.7017 4.30322Q52.835 4.08105 52.9067 3.75122Q52.9785 3.42139 52.9785 2.9873ZM50.9346 2.94629Q50.9346 3.05225 50.9363 3.1582Q50.938 3.26416 50.9482 3.36328L52.8384 1.96533Q52.7871 1.79102 52.7085 1.64746Q52.6299 1.50391 52.5205 1.39966Q52.4111 1.29541 52.271 1.2373Q52.1309 1.1792 51.9565 1.1792Q51.7241 1.1792 51.5344 1.29199Q51.3447 1.40479 51.2114 1.62866Q51.0781 1.85254 51.0063 2.18237Q50.9346 2.51221 50.9346 2.94629ZM57.2886 5.19873L54.4824 5.19873L54.4824 4.64502L55.6309 4.64502L55.6309 1.38428L54.561 1.96533L54.3423 1.45947L55.7642 0.710938L56.2905 0.710938L56.2905 4.64502L57.2886 4.64502L57.2886 5.19873ZM64.9858 5.19873L62.1797 5.19873L62.1797 4.64502L63.3281 4.64502L63.3281 1.38428L62.2583 1.96533L62.0396 1.45947L63.4614 0.710938L63.9878 0.710938L63.9878 4.64502L64.9858 4.64502L64.9858 5.19873ZM68.8345 5.19873L66.0283 5.19873L66.0283 4.64502L67.1768 4.64502L67.1768 1.38428L66.1069 1.96533L65.8882 1.45947L67.3101 0.710938L67.8364 0.710938L67.8364 4.64502L68.8345 4.64502L68.8345 5.19873ZM72.6831 5.19873L69.877 5.19873L69.877 4.64502L71.0254 4.64502L71.0254 1.38428L69.9556 1.96533L69.7368 1.45947L71.1587 0.710938L71.6851 0.710938L71.6851 4.64502L72.6831 4.64502L72.6831 5.19873ZM76.5317 5.19873L73.7256 5.19873L73.7256 4.64502L74.874 4.64502L74.874 1.38428L73.8042 1.96533L73.5854 1.45947L75.0073 0.710938L75.5337 0.710938L75.5337 4.64502L76.5317 4.64502L76.5317 5.19873ZM80.5205 2.9668Q80.5205 3.47949 80.418 3.90161Q80.3154 4.32373 80.1069 4.62622Q79.8984 4.92871 79.5891 5.09448Q79.2798 5.26025 78.8628 5.26025Q78.5039 5.26025 78.21 5.12524Q77.916 4.99023 77.7075 4.70996Q77.499 4.42969 77.3862 3.99561Q77.2734 3.56152 77.2734 2.9668Q77.2734 2.4541 77.3777 2.03027Q77.4819 1.60645 77.6887 1.30396Q77.8955 1.00146 78.2065 0.835693Q78.5176 0.669922 78.9312 0.669922Q79.29 0.669922 79.584 0.804932Q79.8779 0.939941 80.0864 1.22192Q80.2949 1.50391 80.4077 1.93799Q80.5205 2.37207 80.5205 2.9668ZM79.9189 2.9873Q79.9189 2.87109 79.9104 2.75659Q79.9019 2.64209 79.8916 2.53271L78.0015 3.9375Q78.0527 4.11523 78.1313 4.26563Q78.21 4.41602 78.321 4.52368Q78.4321 4.63135 78.574 4.69116Q78.7158 4.75098 78.897 4.75098Q79.1294 4.75098 79.3191 4.63818Q79.5088 4.52539 79.6421 4.30322Q79.7754 4.08105 79.8472 3.75122Q79.9189 3.42139 79.9189 2.9873ZM77.875 2.94629Q77.875 3.05225 77.8767 3.1582Q77.8784 3.26416 77.8887 3.36328L79.7788 1.96533Q79.7275 1.79102 79.6489 1.64746Q79.5703 1.50391 79.4609 1.39966Q79.3516 1.29541 79.2114 1.2373Q79.0713 1.1792 78.897 1.1792Q78.6646 1.1792 78.4749 1.29199Q78.2852 1.40479 78.1519 1.62866Q78.0186 1.85254 77.9468 2.18237Q77.875 2.51221 77.875 2.94629ZM84.3691 2.9668Q84.3691 3.47949 84.2666 3.90161Q84.1641 4.32373 83.9556 4.62622Q83.7471 4.92871 83.4377 5.09448Q83.1284 5.26025 82.7114 5.26025Q82.3525 5.26025 82.0586 5.12524Q81.7646 4.99023 81.5562 4.70996Q81.3477 4.42969 81.2349 3.99561Q81.1221 3.56152 81.1221 2.9668Q81.1221 2.4541 81.2263 2.03027Q81.3306 1.60645 81.5374 1.30396Q81.7441 1.00146 82.0552 0.835693Q82.3662 0.669922 82.7798 0.669922Q83.1387 0.669922 83.4326 0.804932Q83.7266 0.939941 83.9351 1.22192Q84.1436 1.50391 84.2563 1.93799Q84.3691 2.37207 84.3691 2.9668ZM83.7676 2.9873Q83.7676 2.87109 83.759 2.75659Q83.7505 2.64209 83.7402 2.53271L81.8501 3.9375Q81.9014 4.11523 81.98 4.26563Q82.0586 4.41602 82.1697 4.52368Q82.2808 4.63135 82.4226 4.69116Q82.5645 4.75098 82.7456 4.75098Q82.978 4.75098 83.1677 4.63818Q83.3574 4.52539 83.4907 4.30322Q83.624 4.08105 83.6958 3.75122Q83.7676 3.42139 83.7676 2.9873ZM81.7236 2.94629Q81.7236 3.05225 81.7253 3.1582Q81.7271 3.26416 81.7373 3.36328L83.6274 1.96533Q83.5762 1.79102 83.4976 1.64746Q83.4189 1.50391 83.3096 1.39966Q83.2002 1.29541 83.0601 1.2373Q82.9199 1.1792 82.7456 1.1792Q82.5132 1.1792 82.3235 1.29199Q82.1338 1.40479 82.0005 1.62866Q81.8672 1.85254 81.7954 2.18237Q81.7236 2.51221 81.7236 2.94629ZM88.2178 2.9668Q88.2178 3.47949 88.1152 3.90161Q88.0127 4.32373 87.8042 4.62622Q87.5957 4.92871 87.2864 5.09448Q86.9771 5.26025 86.5601 5.26025Q86.2012 5.26025 85.9072 5.12524Q85.6133 4.99023 85.4048 4.70996Q85.1963 4.42969 85.0835 3.99561Q84.9707 3.56152 84.9707 2.9668Q84.9707 2.4541 85.075 2.03027Q85.1792 1.60645 85.386 1.30396Q85.5928 1.00146 85.9038 0.835693Q86.2148 0.669922 86.6284 0.669922Q86.9873 0.669922 87.2813 0.804932Q87.5752 0.939941 87.7837 1.22192Q87.9922 1.50391 88.105 1.93799Q88.2178 2.37207 88.2178 2.9668ZM87.6162 2.9873Q87.6162 2.87109 87.6077 2.75659Q87.5991 2.64209 87.5889 2.53271L85.6987 3.9375Q85.75 4.11523 85.8286 4.26563Q85.9072 4.41602 86.0183 4.52368Q86.1294 4.63135 86.2712 4.69116Q86.4131 4.75098 86.5942 4.75098Q86.8267 4.75098 87.0164 4.63818Q87.2061 4.52539 87.3394 4.30322Q87.4727 4.08105 87.5444 3.75122Q87.6162 3.42139 87.6162 2.9873ZM85.5723 2.94629Q85.5723 3.05225 85.574 3.1582Q85.5757 3.26416 85.5859 3.36328L87.4761 1.96533Q87.4248 1.79102 87.3462 1.64746Q87.2676 1.50391 87.1582 1.39966Q87.0488 1.29541 86.9087 1.2373Q86.7686 1.1792 86.5942 1.1792Q86.3618 1.1792 86.1721 1.29199Q85.9824 1.40479 85.8491 1.62866Q85.7158 1.85254 85.644 2.18237Q85.5723 2.51221 85.5723 2.94629ZM95.7749 5.19873L92.9688 5.19873L92.9688 4.64502L94.1172 4.64502L94.1172 1.38428L93.0474 1.96533L92.8286 1.45947L94.2505 0.710938L94.7769 0.710938L94.7769 4.64502L95.7749 4.64502L95.7749 5.19873ZM99.6235 5.19873L96.8174 5.19873L96.8174 4.64502L97.9658 4.64502L97.9658 1.38428L96.896 1.96533L96.6772 1.45947L98.0991 0.710938L98.6255 0.710938L98.6255 4.64502L99.6235 4.64502L99.6235 5.19873ZM103.472 5.19873L100.666 5.19873L100.666 4.64502L101.814 4.64502L101.814 1.38428L100.745 1.96533L100.526 1.45947L101.948 0.710938L102.474 0.710938L102.474 4.64502L103.472 4.64502L103.472 5.19873ZM107.461 2.9668Q107.461 3.47949 107.358 3.90161Q107.256 4.32373 107.047 4.62622Q106.839 4.92871 106.53 5.09448Q106.22 5.26025 105.803 5.26025Q105.444 5.26025 105.15 5.12524Q104.856 4.99023 104.648 4.70996Q104.439 4.42969 104.327 3.99561Q104.214 3.56152 104.214 2.9668Q104.214 2.4541 104.318 2.03027Q104.422 1.60645 104.629 1.30396Q104.836 1.00146 105.147 0.835693Q105.458 0.669922 105.872 0.669922Q106.23 0.669922 106.524 0.804932Q106.818 0.939941 107.027 1.22192Q107.235 1.50391 107.348 1.93799Q107.461 2.37207 107.461 2.9668ZM106.859 2.9873Q106.859 2.87109 106.851 2.75659Q106.842 2.64209 106.832 2.53271L104.942 3.9375Q104.993 4.11523 105.072 4.26563Q105.15 4.41602 105.261 4.52368Q105.373 4.63135 105.514 4.69116Q105.656 4.75098 105.837 4.75098Q106.07 4.75098 106.26 4.63818Q106.449 4.52539 106.583 4.30322Q106.716 4.08105 106.788 3.75122Q106.859 3.42139 106.859 2.9873ZM104.815 2.94629Q104.815 3.05225 104.817 3.1582Q104.819 3.26416 104.829 3.36328L106.719 1.96533Q106.668 1.79102 106.589 1.64746Q106.511 1.50391 106.401 1.39966Q106.292 1.29541 106.152 1.2373Q106.012 1.1792 105.837 1.1792Q105.605 1.1792 105.415 1.29199Q105.226 1.40479 105.092 1.62866Q104.959 1.85254 104.887 2.18237Q104.815 2.51221 104.815 2.94629ZM111.169 5.19873L108.363 5.19873L108.363 4.64502L109.512 4.64502L109.512 1.38428L108.442 1.96533L108.223 1.45947L109.645 0.710938L110.171 0.710938L110.171 4.64502L111.169 4.64502L111.169 5.19873ZM115.158 2.9668Q115.158 3.47949 115.056 3.90161Q114.953 4.32373 114.745 4.62622Q114.536 4.92871 114.227 5.09448Q113.917 5.26025 113.5 5.26025Q113.142 5.26025 112.848 5.12524Q112.554 4.99023 112.345 4.70996Q112.137 4.42969 112.024 3.99561Q111.911 3.56152 111.911 2.9668Q111.911 2.4541 112.015 2.03027Q112.12 1.60645 112.326 1.30396Q112.533 1.00146 112.844 0.835693Q113.155 0.669922 113.569 0.669922Q113.928 0.669922 114.222 0.804932Q114.516 0.939941 114.724 1.22192Q114.933 1.50391 115.045 1.93799Q115.158 2.37207 115.158 2.9668ZM114.557 2.9873Q114.557 2.87109 114.548 2.75659Q114.54 2.64209 114.529 2.53271L112.639 3.9375Q112.69 4.11523 112.769 4.26563Q112.848 4.41602 112.959 4.52368Q113.07 4.63135 113.212 4.69116Q113.354 4.75098 113.535 4.75098Q113.767 4.75098 113.957 4.63818Q114.146 4.52539 114.28 4.30322Q114.413 4.08105 114.485 3.75122Q114.557 3.42139 114.557 2.9873ZM112.513 2.94629Q112.513 3.05225 112.514 3.1582Q112.516 3.26416 112.526 3.36328L114.417 1.96533Q114.365 1.79102 114.287 1.64746Q114.208 1.50391 114.099 1.39966Q113.989 1.29541 113.849 1.2373Q113.709 1.1792 113.535 1.1792Q113.302 1.1792 113.113 1.29199Q112.923 1.40479 112.79 1.62866Q112.656 1.85254 112.584 2.18237Q112.513 2.51221 112.513 2.94629ZM119.007 2.9668Q119.007 3.47949 118.904 3.90161Q118.802 4.32373 118.593 4.62622Q118.385 4.92871 118.075 5.09448Q117.766 5.26025 117.349 5.26025Q116.99 5.26025 116.696 5.12524Q116.402 4.99023 116.194 4.70996Q115.985 4.42969 115.873 3.99561Q115.76 3.56152 115.76 2.9668Q115.76 2.4541 115.864 2.03027Q115.968 1.60645 116.175 1.30396Q116.382 1.00146 116.693 0.835693Q117.004 0.669922 117.417 0.669922Q117.776 0.669922 118.07 0.804932Q118.364 0.939941 118.573 1.22192Q118.781 1.50391 118.894 1.93799Q119.007 2.37207 119.007 2.9668ZM118.405 2.9873Q118.405 2.87109 118.397 2.75659Q118.388 2.64209 118.378 2.53271L116.488 3.9375Q116.539 4.11523 116.618 4.26563Q116.696 4.41602 116.807 4.52368Q116.918 4.63135 117.06 4.69116Q117.202 4.75098 117.383 4.75098Q117.616 4.75098 117.805 4.63818Q117.995 4.52539 118.128 4.30322Q118.262 4.08105 118.333 3.75122Q118.405 3.42139 118.405 2.9873ZM116.361 2.94629Q116.361 3.05225 116.363 3.1582Q116.365 3.26416 116.375 3.36328L118.265 1.96533Q118.214 1.79102 118.135 1.64746Q118.057 1.50391 117.947 1.39966Q117.838 1.29541 117.698 1.2373Q117.558 1.1792 117.383 1.1792Q117.151 1.1792 116.961 1.29199Q116.771 1.40479 116.638 1.62866Q116.505 1.85254 116.433 2.18237Q116.361 2.51221 116.361 2.94629Z"
              style="fill:#FFFFFF;"/>
    </g>
    <g style="mix-blend-mode:normal;" transform="translate(162 19)">
        <path d="M2.17969 2.9707L1.80078 2.9707L1.62305 2.41406L0.560547 2.41406L0.380859 2.9707L0.0195313 2.9707L0.867188 0.417969L1.34375 0.417969L2.17969 2.9707ZM1.52344 2.10352L1.0918 0.738281L0.660156 2.10352L1.52344 2.10352Z"
              style="fill:#FFFFFF;"/>
    </g>
    <g style="mix-blend-mode:normal;" transform="translate(171 19)">
        <path d="M2.02734 1.69531Q2.02734 1.98828 1.96875 2.22949Q1.91016 2.4707 1.79102 2.64355Q1.67188 2.81641 1.49512 2.91113Q1.31836 3.00586 1.08008 3.00586Q0.875 3.00586 0.707031 2.92871Q0.539063 2.85156 0.419922 2.69141Q0.300781 2.53125 0.236328 2.2832Q0.171875 2.03516 0.171875 1.69531Q0.171875 1.40234 0.231445 1.16016Q0.291016 0.917969 0.40918 0.745117Q0.527344 0.572266 0.705078 0.477539Q0.882813 0.382813 1.11914 0.382813Q1.32422 0.382813 1.49219 0.459961Q1.66016 0.537109 1.7793 0.698242Q1.89844 0.859375 1.96289 1.10742Q2.02734 1.35547 2.02734 1.69531ZM1.68359 1.70703Q1.68359 1.64063 1.67871 1.5752Q1.67383 1.50977 1.66797 1.44727L0.587891 2.25Q0.617188 2.35156 0.662109 2.4375Q0.707031 2.52344 0.770508 2.58496Q0.833984 2.64648 0.915039 2.68066Q0.996094 2.71484 1.09961 2.71484Q1.23242 2.71484 1.34082 2.65039Q1.44922 2.58594 1.52539 2.45898Q1.60156 2.33203 1.64258 2.14355Q1.68359 1.95508 1.68359 1.70703ZM0.515625 1.68359Q0.515625 1.74414 0.516602 1.80469Q0.517578 1.86523 0.523438 1.92188L1.60352 1.12305Q1.57422 1.02344 1.5293 0.941406Q1.48437 0.859375 1.42188 0.799805Q1.35937 0.740235 1.2793 0.707031Q1.19922 0.673828 1.09961 0.673828Q0.966797 0.673828 0.858398 0.738281Q0.75 0.802734 0.673828 0.930664Q0.597656 1.05859 0.556641 1.24707Q0.515625 1.43555 0.515625 1.68359ZM4.2793 2.9707L3.82813 2.9707L3.29883 2.22266L2.77539 2.9707L2.33594 2.9707L3.0957 1.98633L2.37109 1.00977L2.80664 1.00977L3.32227 1.76367L3.82813 1.00977L4.24805 1.00977L3.51172 1.99414L4.2793 2.9707ZM6.39844 2.16211Q6.39844 2.33789 6.33496 2.49219Q6.27148 2.64648 6.1543 2.76074Q6.03711 2.875 5.87207 2.94043Q5.70703 3.00586 5.50586 3.00586Q5.29492 3.00586 5.13281 2.93848Q4.9707 2.87109 4.86133 2.73145Q4.75195 2.5918 4.69531 2.37891Q4.63867 2.16602 4.63867 1.875Q4.63867 1.67969 4.66406 1.49609Q4.68945 1.3125 4.74805 1.15039Q4.80664 0.988281 4.9043 0.853516Q5.00195 0.71875 5.14746 0.62207Q5.29297 0.525391 5.49023 0.47168Q5.6875 0.417969 5.94727 0.417969L6.19922 0.417969L6.19922 0.714844L5.92578 0.714844Q5.69727 0.714844 5.5293 0.769531Q5.36133 0.824219 5.24805 0.923828Q5.13477 1.02344 5.07422 1.16406Q5.01367 1.30469 4.99805 1.47852L4.99023 1.55859Q5.11328 1.48633 5.27441 1.44238Q5.43555 1.39844 5.62305 1.39844Q5.81641 1.39844 5.96191 1.45508Q6.10742 1.51172 6.2041 1.6123Q6.30078 1.71289 6.34961 1.85352Q6.39844 1.99414 6.39844 2.16211ZM6.04297 2.18359Q6.04297 2.06641 6.01465 1.97168Q5.98633 1.87695 5.92578 1.81152Q5.86523 1.74609 5.77246 1.70996Q5.67969 1.67383 5.55078 1.67383Q5.47656 1.67383 5.40039 1.6875Q5.32422 1.70117 5.25098 1.72559Q5.17773 1.75 5.11133 1.78125Q5.04492 1.8125 4.99023 1.84766Q4.99023 2.09961 5.02539 2.26855Q5.06055 2.4375 5.12988 2.53906Q5.19922 2.64063 5.30078 2.68359Q5.40234 2.72656 5.53516 2.72656Q5.64648 2.72656 5.73926 2.69043Q5.83203 2.6543 5.89941 2.58398Q5.9668 2.51367 6.00488 2.41309Q6.04297 2.3125 6.04297 2.18359ZM8.50195 2.1543Q8.50195 2.34375 8.41992 2.5Q8.33789 2.65625 8.19434 2.76855Q8.05078 2.88086 7.85547 2.94336Q7.66016 3.00586 7.43359 3.00586Q7.37695 3.00586 7.31152 3.00293Q7.24609 3 7.18164 2.99512Q7.11719 2.99023 7.05566 2.98438Q6.99414 2.97852 6.94531 2.9707L6.94531 2.66211Q7.05078 2.6875 7.18652 2.69922Q7.32227 2.71094 7.46094 2.71094Q7.61719 2.71094 7.74219 2.67383Q7.86719 2.63672 7.95508 2.56738Q8.04297 2.49805 8.08984 2.39941Q8.13672 2.30078 8.13672 2.17773Q8.13672 1.93945 7.96582 1.83105Q7.79492 1.72266 7.47461 1.72266L6.99023 1.72266L6.99023 0.417969L8.36523 0.417969L8.36523 0.714844L7.31055 0.714844L7.31055 1.43164L7.5332 1.43164Q7.7168 1.43164 7.89063 1.46484Q8.06445 1.49805 8.2002 1.58105Q8.33594 1.66406 8.41895 1.80371Q8.50195 1.94336 8.50195 2.1543Z"
              style="fill:#FFFFFF;"/>
    </g>
    <g style="mix-blend-mode:normal;" transform="translate(162 27)">
        <path d="M1.98438 2.20703Q1.98438 2.39063 1.91309 2.53223Q1.8418 2.67383 1.70996 2.77148Q1.57813 2.86914 1.3916 2.91992C1.26725 2.95378 1.12891 2.9707 0.976563 2.9707L0.308594 2.9707L0.308594 0.417969L1.03906 0.417969Q1.89258 0.417969 1.89258 1.03906Q1.89258 1.24609 1.79395 1.39453Q1.69531 1.54297 1.47266 1.61523Q1.57617 1.63477 1.66895 1.68164Q1.76172 1.72852 1.83203 1.80273Q1.90234 1.87695 1.94336 1.97852Q1.98438 2.08008 1.98438 2.20703ZM1.53125 1.08594Q1.53125 1.00781 1.50781 0.938477Q1.48438 0.869141 1.42578 0.819336Q1.36719 0.769531 1.26758 0.740234Q1.16797 0.710938 1.01563 0.710938L0.65625 0.710938L0.65625 1.50977L1.00391 1.50977Q1.12305 1.50977 1.21973 1.48438Q1.31641 1.45898 1.38574 1.40625Q1.45508 1.35352 1.49316 1.27441Q1.53125 1.19531 1.53125 1.08594ZM1.61523 2.21875Q1.61523 2.12109 1.57422 2.04297Q1.5332 1.96484 1.45508 1.91113Q1.37695 1.85742 1.26465 1.82813Q1.15234 1.79883 1.01172 1.79883L0.65625 1.79883L0.65625 2.67773L1.02344 2.67773Q1.32227 2.67773 1.46875 2.56641Q1.61523 2.45508 1.61523 2.21875Z"
              style="fill:#FFFFFF;"/>
    </g>
    <g style="mix-blend-mode:normal;" transform="translate(162 36)">
        <path d="M1.94336 2.875Q1.63672 3.00195 1.30078 3.00195Q0.759766 3.00195 0.469727 2.67871Q0.179688 2.35547 0.179688 1.72266Q0.179688 1.41602 0.259766 1.16797Q0.339844 0.919922 0.488281 0.74707Q0.636719 0.574219 0.847656 0.480469Q1.05859 0.386719 1.32031 0.386719Q1.49805 0.386719 1.65039 0.416992Q1.80273 0.447266 1.94336 0.509766L1.94336 0.851563Q1.80469 0.775391 1.65625 0.735352Q1.50781 0.695313 1.33203 0.695313Q1.15234 0.695313 1.00684 0.762695Q0.861328 0.830078 0.759766 0.958008Q0.658203 1.08594 0.603516 1.27051Q0.548828 1.45508 0.548828 1.69141Q0.548828 2.1875 0.75 2.43945Q0.951172 2.69141 1.33984 2.69141Q1.50391 2.69141 1.6543 2.65332Q1.80469 2.61523 1.94336 2.54688L1.94336 2.875Z"
              style="fill:#FFFFFF;"/>
    </g>
    <g style="mix-blend-mode:normal;" transform="translate(162 45)">
        <path d="M2.05664 1.66602Q2.05664 1.84961 2.02832 2.01758Q2 2.18555 1.9375 2.33008Q1.875 2.47461 1.77539 2.59277Q1.67578 2.71094 1.53125 2.79492Q1.38672 2.87891 1.19531 2.9248Q1.00391 2.9707 0.759766 2.9707L0.212891 2.9707L0.212891 0.417969L0.871094 0.417969Q1.46875 0.417969 1.7627 0.725586Q2.05664 1.0332 2.05664 1.66602ZM1.69141 1.69141Q1.69141 1.41992 1.64063 1.23242Q1.58984 1.04492 1.48633 0.929688Q1.38281 0.814453 1.22656 0.762695Q1.07031 0.710938 0.859375 0.710938L0.560547 0.710938L0.560547 2.66992L0.820313 2.66992Q1.69141 2.66992 1.69141 1.69141Z"
              style="fill:#FFFFFF;"/>
    </g>
    <line id="Line" x1="0" y1="0" x2="0" y2="33"
          style="fill:none;stroke-width:0.5;stroke:#FFFFFF;stroke-linecap:square;mix-blend-mode:normal;"
          transform="translate(168 18)"/>
    <line id="Line" x1="0" y1="0" x2="24.672" y2="0"
          style="fill:none;stroke-width:0.5;stroke:#FFFFFF;stroke-linecap:square;mix-blend-mode:normal;"
          transform="translate(157 24)"/>
    <line id="Line" x1="0" y1="0" x2="25" y2="0"
          style="fill:none;stroke-width:0.5;stroke:#FFFFFF;stroke-linecap:square;mix-blend-mode:normal;"
          transform="translate(157 33)"/>
    <line id="Line" x1="0" y1="0" x2="25" y2="0"
          style="fill:none;stroke-width:0.5;stroke:#FFFFFF;stroke-linecap:square;mix-blend-mode:normal;"
          transform="translate(157 42)"/>
    <g style="mix-blend-mode:normal;" transform="translate(171 27)">
        <path d="M2.02734 1.69531Q2.02734 1.98828 1.96875 2.22949Q1.91016 2.4707 1.79102 2.64355Q1.67188 2.81641 1.49512 2.91113Q1.31836 3.00586 1.08008 3.00586Q0.875 3.00586 0.707031 2.92871Q0.539063 2.85156 0.419922 2.69141Q0.300781 2.53125 0.236328 2.2832Q0.171875 2.03516 0.171875 1.69531Q0.171875 1.40234 0.231445 1.16016Q0.291016 0.917969 0.40918 0.745117Q0.527344 0.572266 0.705078 0.477539Q0.882813 0.382813 1.11914 0.382813Q1.32422 0.382813 1.49219 0.459961Q1.66016 0.537109 1.7793 0.698242Q1.89844 0.859375 1.96289 1.10742Q2.02734 1.35547 2.02734 1.69531ZM1.68359 1.70703Q1.68359 1.64063 1.67871 1.5752Q1.67383 1.50977 1.66797 1.44727L0.587891 2.25Q0.617188 2.35156 0.662109 2.4375Q0.707031 2.52344 0.770508 2.58496Q0.833984 2.64648 0.915039 2.68066Q0.996094 2.71484 1.09961 2.71484Q1.23242 2.71484 1.34082 2.65039Q1.44922 2.58594 1.52539 2.45898Q1.60156 2.33203 1.64258 2.14355Q1.68359 1.95508 1.68359 1.70703ZM0.515625 1.68359Q0.515625 1.74414 0.516602 1.80469Q0.517578 1.86523 0.523438 1.92188L1.60352 1.12305Q1.57422 1.02344 1.5293 0.941406Q1.48437 0.859375 1.42188 0.799805Q1.35937 0.740235 1.2793 0.707031Q1.19922 0.673828 1.09961 0.673828Q0.966797 0.673828 0.858398 0.738281Q0.75 0.802734 0.673828 0.930664Q0.597656 1.05859 0.556641 1.24707Q0.515625 1.43555 0.515625 1.68359ZM4.2793 2.9707L3.82813 2.9707L3.29883 2.22266L2.77539 2.9707L2.33594 2.9707L3.0957 1.98633L2.37109 1.00977L2.80664 1.00977L3.32227 1.76367L3.82813 1.00977L4.24805 1.00977L3.51172 1.99414L4.2793 2.9707ZM6.39844 2.16211Q6.39844 2.33789 6.33496 2.49219Q6.27148 2.64648 6.1543 2.76074Q6.03711 2.875 5.87207 2.94043Q5.70703 3.00586 5.50586 3.00586Q5.29492 3.00586 5.13281 2.93848Q4.9707 2.87109 4.86133 2.73145Q4.75195 2.5918 4.69531 2.37891Q4.63867 2.16602 4.63867 1.875Q4.63867 1.67969 4.66406 1.49609Q4.68945 1.3125 4.74805 1.15039Q4.80664 0.988281 4.9043 0.853516Q5.00195 0.71875 5.14746 0.62207Q5.29297 0.525391 5.49023 0.47168Q5.6875 0.417969 5.94727 0.417969L6.19922 0.417969L6.19922 0.714844L5.92578 0.714844Q5.69727 0.714844 5.5293 0.769531Q5.36133 0.824219 5.24805 0.923828Q5.13477 1.02344 5.07422 1.16406Q5.01367 1.30469 4.99805 1.47852L4.99023 1.55859Q5.11328 1.48633 5.27441 1.44238Q5.43555 1.39844 5.62305 1.39844Q5.81641 1.39844 5.96191 1.45508Q6.10742 1.51172 6.2041 1.6123Q6.30078 1.71289 6.34961 1.85352Q6.39844 1.99414 6.39844 2.16211ZM6.04297 2.18359Q6.04297 2.06641 6.01465 1.97168Q5.98633 1.87695 5.92578 1.81152Q5.86523 1.74609 5.77246 1.70996Q5.67969 1.67383 5.55078 1.67383Q5.47656 1.67383 5.40039 1.6875Q5.32422 1.70117 5.25098 1.72559Q5.17773 1.75 5.11133 1.78125Q5.04492 1.8125 4.99023 1.84766Q4.99023 2.09961 5.02539 2.26855Q5.06055 2.4375 5.12988 2.53906Q5.19922 2.64063 5.30078 2.68359Q5.40234 2.72656 5.53516 2.72656Q5.64648 2.72656 5.73926 2.69043Q5.83203 2.6543 5.89941 2.58398Q5.9668 2.51367 6.00488 2.41309Q6.04297 2.3125 6.04297 2.18359ZM8.59766 2.16211Q8.59766 2.33789 8.53418 2.49219Q8.4707 2.64648 8.35352 2.76074Q8.23633 2.875 8.07129 2.94043Q7.90625 3.00586 7.70508 3.00586Q7.49414 3.00586 7.33203 2.93848Q7.16992 2.87109 7.06055 2.73145Q6.95117 2.5918 6.89453 2.37891Q6.83789 2.16602 6.83789 1.875Q6.83789 1.67969 6.86328 1.49609Q6.88867 1.3125 6.94727 1.15039Q7.00586 0.988281 7.10352 0.853516Q7.20117 0.71875 7.34668 0.62207Q7.49219 0.525391 7.68945 0.47168Q7.88672 0.417969 8.14648 0.417969L8.39844 0.417969L8.39844 0.714844L8.125 0.714844Q7.89648 0.714844 7.72852 0.769531Q7.56055 0.824219 7.44727 0.923828Q7.33398 1.02344 7.27344 1.16406Q7.21289 1.30469 7.19727 1.47852L7.18945 1.55859Q7.3125 1.48633 7.47363 1.44238Q7.63477 1.39844 7.82227 1.39844Q8.01563 1.39844 8.16113 1.45508Q8.30664 1.51172 8.40332 1.6123Q8.5 1.71289 8.54883 1.85352Q8.59766 1.99414 8.59766 2.16211ZM8.24219 2.18359Q8.24219 2.06641 8.21387 1.97168Q8.18555 1.87695 8.125 1.81152Q8.06445 1.74609 7.97168 1.70996Q7.87891 1.67383 7.75 1.67383Q7.67578 1.67383 7.59961 1.6875Q7.52344 1.70117 7.4502 1.72559Q7.37695 1.75 7.31055 1.78125Q7.24414 1.8125 7.18945 1.84766Q7.18945 2.09961 7.22461 2.26855Q7.25977 2.4375 7.3291 2.53906Q7.39844 2.64063 7.5 2.68359Q7.60156 2.72656 7.73438 2.72656Q7.8457 2.72656 7.93848 2.69043Q8.03125 2.6543 8.09863 2.58398Q8.16602 2.51367 8.2041 2.41309Q8.24219 2.3125 8.24219 2.18359Z"
              style="fill:#FFFFFF;"/>
    </g>
    <g style="mix-blend-mode:normal;" transform="translate(171 36)">
        <path d="M2.02734 1.69531Q2.02734 1.98828 1.96875 2.22949Q1.91016 2.4707 1.79102 2.64355Q1.67188 2.81641 1.49512 2.91113Q1.31836 3.00586 1.08008 3.00586Q0.875 3.00586 0.707031 2.92871Q0.539063 2.85156 0.419922 2.69141Q0.300781 2.53125 0.236328 2.2832Q0.171875 2.03516 0.171875 1.69531Q0.171875 1.40234 0.231445 1.16016Q0.291016 0.917969 0.40918 0.745117Q0.527344 0.572266 0.705078 0.477539Q0.882813 0.382813 1.11914 0.382813Q1.32422 0.382813 1.49219 0.459961Q1.66016 0.537109 1.7793 0.698242Q1.89844 0.859375 1.96289 1.10742Q2.02734 1.35547 2.02734 1.69531ZM1.68359 1.70703Q1.68359 1.64063 1.67871 1.5752Q1.67383 1.50977 1.66797 1.44727L0.587891 2.25Q0.617188 2.35156 0.662109 2.4375Q0.707031 2.52344 0.770508 2.58496Q0.833984 2.64648 0.915039 2.68066Q0.996094 2.71484 1.09961 2.71484Q1.23242 2.71484 1.34082 2.65039Q1.44922 2.58594 1.52539 2.45898Q1.60156 2.33203 1.64258 2.14355Q1.68359 1.95508 1.68359 1.70703ZM0.515625 1.68359Q0.515625 1.74414 0.516602 1.80469Q0.517578 1.86523 0.523438 1.92188L1.60352 1.12305Q1.57422 1.02344 1.5293 0.941406Q1.48437 0.859375 1.42188 0.799805Q1.35937 0.740235 1.2793 0.707031Q1.19922 0.673828 1.09961 0.673828Q0.966797 0.673828 0.858398 0.738281Q0.75 0.802734 0.673828 0.930664Q0.597656 1.05859 0.556641 1.24707Q0.515625 1.43555 0.515625 1.68359ZM4.2793 2.9707L3.82813 2.9707L3.29883 2.22266L2.77539 2.9707L2.33594 2.9707L3.0957 1.98633L2.37109 1.00977L2.80664 1.00977L3.32227 1.76367L3.82813 1.00977L4.24805 1.00977L3.51172 1.99414L4.2793 2.9707ZM6.39844 2.16211Q6.39844 2.33789 6.33496 2.49219Q6.27148 2.64648 6.1543 2.76074Q6.03711 2.875 5.87207 2.94043Q5.70703 3.00586 5.50586 3.00586Q5.29492 3.00586 5.13281 2.93848Q4.9707 2.87109 4.86133 2.73145Q4.75195 2.5918 4.69531 2.37891Q4.63867 2.16602 4.63867 1.875Q4.63867 1.67969 4.66406 1.49609Q4.68945 1.3125 4.74805 1.15039Q4.80664 0.988281 4.9043 0.853516Q5.00195 0.71875 5.14746 0.62207Q5.29297 0.525391 5.49023 0.47168Q5.6875 0.417969 5.94727 0.417969L6.19922 0.417969L6.19922 0.714844L5.92578 0.714844Q5.69727 0.714844 5.5293 0.769531Q5.36133 0.824219 5.24805 0.923828Q5.13477 1.02344 5.07422 1.16406Q5.01367 1.30469 4.99805 1.47852L4.99023 1.55859Q5.11328 1.48633 5.27441 1.44238Q5.43555 1.39844 5.62305 1.39844Q5.81641 1.39844 5.96191 1.45508Q6.10742 1.51172 6.2041 1.6123Q6.30078 1.71289 6.34961 1.85352Q6.39844 1.99414 6.39844 2.16211ZM6.04297 2.18359Q6.04297 2.06641 6.01465 1.97168Q5.98633 1.87695 5.92578 1.81152Q5.86523 1.74609 5.77246 1.70996Q5.67969 1.67383 5.55078 1.67383Q5.47656 1.67383 5.40039 1.6875Q5.32422 1.70117 5.25098 1.72559Q5.17773 1.75 5.11133 1.78125Q5.04492 1.8125 4.99023 1.84766Q4.99023 2.09961 5.02539 2.26855Q5.06055 2.4375 5.12988 2.53906Q5.19922 2.64063 5.30078 2.68359Q5.40234 2.72656 5.53516 2.72656Q5.64648 2.72656 5.73926 2.69043Q5.83203 2.6543 5.89941 2.58398Q5.9668 2.51367 6.00488 2.41309Q6.04297 2.3125 6.04297 2.18359ZM8.55273 0.734375L7.48242 2.9707L7.09375 2.9707L8.20508 0.734375L6.82617 0.734375L6.82617 0.417969L8.55273 0.417969L8.55273 0.734375Z"
              style="fill:#FFFFFF;"/>
    </g>
    <g style="mix-blend-mode:normal;" transform="translate(171 45)">
        <path d="M2.02734 1.69531Q2.02734 1.98828 1.96875 2.22949Q1.91016 2.4707 1.79102 2.64355Q1.67188 2.81641 1.49512 2.91113Q1.31836 3.00586 1.08008 3.00586Q0.875 3.00586 0.707031 2.92871Q0.539063 2.85156 0.419922 2.69141Q0.300781 2.53125 0.236328 2.2832Q0.171875 2.03516 0.171875 1.69531Q0.171875 1.40234 0.231445 1.16016Q0.291016 0.917969 0.40918 0.745117Q0.527344 0.572266 0.705078 0.477539Q0.882813 0.382813 1.11914 0.382813Q1.32422 0.382813 1.49219 0.459961Q1.66016 0.537109 1.7793 0.698242Q1.89844 0.859375 1.96289 1.10742Q2.02734 1.35547 2.02734 1.69531ZM1.68359 1.70703Q1.68359 1.64063 1.67871 1.5752Q1.67383 1.50977 1.66797 1.44727L0.587891 2.25Q0.617188 2.35156 0.662109 2.4375Q0.707031 2.52344 0.770508 2.58496Q0.833984 2.64648 0.915039 2.68066Q0.996094 2.71484 1.09961 2.71484Q1.23242 2.71484 1.34082 2.65039Q1.44922 2.58594 1.52539 2.45898Q1.60156 2.33203 1.64258 2.14355Q1.68359 1.95508 1.68359 1.70703ZM0.515625 1.68359Q0.515625 1.74414 0.516602 1.80469Q0.517578 1.86523 0.523438 1.92188L1.60352 1.12305Q1.57422 1.02344 1.5293 0.941406Q1.48437 0.859375 1.42188 0.799805Q1.35937 0.740235 1.2793 0.707031Q1.19922 0.673828 1.09961 0.673828Q0.966797 0.673828 0.858398 0.738281Q0.75 0.802734 0.673828 0.930664Q0.597656 1.05859 0.556641 1.24707Q0.515625 1.43555 0.515625 1.68359ZM4.2793 2.9707L3.82813 2.9707L3.29883 2.22266L2.77539 2.9707L2.33594 2.9707L3.0957 1.98633L2.37109 1.00977L2.80664 1.00977L3.32227 1.76367L3.82813 1.00977L4.24805 1.00977L3.51172 1.99414L4.2793 2.9707ZM6.39844 2.16211Q6.39844 2.33789 6.33496 2.49219Q6.27148 2.64648 6.1543 2.76074Q6.03711 2.875 5.87207 2.94043Q5.70703 3.00586 5.50586 3.00586Q5.29492 3.00586 5.13281 2.93848Q4.9707 2.87109 4.86133 2.73145Q4.75195 2.5918 4.69531 2.37891Q4.63867 2.16602 4.63867 1.875Q4.63867 1.67969 4.66406 1.49609Q4.68945 1.3125 4.74805 1.15039Q4.80664 0.988281 4.9043 0.853516Q5.00195 0.71875 5.14746 0.62207Q5.29297 0.525391 5.49023 0.47168Q5.6875 0.417969 5.94727 0.417969L6.19922 0.417969L6.19922 0.714844L5.92578 0.714844Q5.69727 0.714844 5.5293 0.769531Q5.36133 0.824219 5.24805 0.923828Q5.13477 1.02344 5.07422 1.16406Q5.01367 1.30469 4.99805 1.47852L4.99023 1.55859Q5.11328 1.48633 5.27441 1.44238Q5.43555 1.39844 5.62305 1.39844Q5.81641 1.39844 5.96191 1.45508Q6.10742 1.51172 6.2041 1.6123Q6.30078 1.71289 6.34961 1.85352Q6.39844 1.99414 6.39844 2.16211ZM6.04297 2.18359Q6.04297 2.06641 6.01465 1.97168Q5.98633 1.87695 5.92578 1.81152Q5.86523 1.74609 5.77246 1.70996Q5.67969 1.67383 5.55078 1.67383Q5.47656 1.67383 5.40039 1.6875Q5.32422 1.70117 5.25098 1.72559Q5.17773 1.75 5.11133 1.78125Q5.04492 1.8125 4.99023 1.84766Q4.99023 2.09961 5.02539 2.26855Q5.06055 2.4375 5.12988 2.53906Q5.19922 2.64063 5.30078 2.68359Q5.40234 2.72656 5.53516 2.72656Q5.64648 2.72656 5.73926 2.69043Q5.83203 2.6543 5.89941 2.58398Q5.9668 2.51367 6.00488 2.41309Q6.04297 2.3125 6.04297 2.18359ZM8.56641 2.33008Q8.56641 2.49219 8.5 2.61816Q8.43359 2.74414 8.31445 2.83008Q8.19531 2.91602 8.0332 2.96094Q7.87109 3.00586 7.68164 3.00586Q7.47266 3.00586 7.31348 2.95898Q7.1543 2.91211 7.04688 2.82813Q6.93945 2.74414 6.88477 2.62891Q6.83008 2.51367 6.83008 2.375Q6.83008 2.14063 6.96094 1.9707Q7.0918 1.80078 7.36523 1.66211Q7.11523 1.53516 7 1.37988Q6.88477 1.22461 6.88477 1.02344Q6.88477 0.900391 6.93555 0.785156Q6.98633 0.669922 7.08887 0.580078Q7.19141 0.490234 7.3457 0.436523Q7.5 0.382813 7.70898 0.382813Q7.90625 0.382813 8.05566 0.424805Q8.20508 0.466797 8.30664 0.544922Q8.4082 0.623047 8.45898 0.734375Q8.50977 0.845703 8.50977 0.982422Q8.50977 1.20508 8.38574 1.36133Q8.26172 1.51758 8.0332 1.63477Q8.14648 1.69141 8.24414 1.75977Q8.3418 1.82813 8.41406 1.91211Q8.48633 1.99609 8.52637 2.09961Q8.56641 2.20313 8.56641 2.33008ZM8.16211 1.00977Q8.16211 0.835938 8.04004 0.750977Q7.91797 0.666016 7.69727 0.666016Q7.47852 0.666016 7.35645 0.75Q7.23438 0.833985 7.23438 1.00195Q7.23438 1.07813 7.26367 1.14258Q7.29297 1.20703 7.35449 1.26367Q7.41602 1.32031 7.50781 1.375Q7.59961 1.42969 7.72656 1.48633Q7.94727 1.38281 8.05469 1.27051Q8.16211 1.1582 8.16211 1.00977ZM8.19727 2.35547Q8.19727 2.2832 8.17383 2.21484Q8.15039 2.14648 8.08984 2.08008Q8.0293 2.01367 7.92773 1.94727Q7.82617 1.88086 7.66992 1.81055Q7.53711 1.875 7.44629 1.93848Q7.35547 2.00195 7.2998 2.06738Q7.24414 2.13281 7.2207 2.20313Q7.19727 2.27344 7.19727 2.35156Q7.19727 2.43945 7.23535 2.50684Q7.27344 2.57422 7.33984 2.62109Q7.40625 2.66797 7.49805 2.69141Q7.58984 2.71484 7.69727 2.71484Q7.80078 2.71484 7.89258 2.69336Q7.98438 2.67188 8.05176 2.62793Q8.11914 2.58398 8.1582 2.5166Q8.19727 2.44922 8.19727 2.35547Z"
              style="fill:#FFFFFF;"/>
    </g>
    <rect id="Rectangle" width="120" height="10"
          style="fill:#FFFFFF;fill-rule:evenodd;fill-opacity:0.184;mix-blend-mode:normal;"
          transform="translate(13 9)"/>
    <path id="Rectangle"
          d="M1 0C1.55235 0 2 0.447639 2 1L2 36C2 36.5524 1.55235 37 1 37L1 37C0.447647 37 0 36.5524 0 36L0 1C0 0.447639 0.447647 0 1 0Z"
          style="fill:#FFFFFF;mix-blend-mode:normal;" transform="translate(128 35)"/>
</svg>