<svg width="400" height="300" viewBox="0 0 400 300" fill="none" xmlns="http://www.w3.org/2000/svg">
    <rect width="400" height="300" fill="#F34100"/>
    <path d="M53.8295 44.2386C53.5455 43.3182 53.1534 42.4943 52.6534 41.767C52.1648 41.0284 51.5739 40.3977 50.8807 39.875C50.1989 39.3523 49.4148 38.9602 48.5284 38.6989C47.642 38.4261 46.6761 38.2898 45.6307 38.2898C43.7557 38.2898 42.0852 38.7614 40.6193 39.7045C39.1534 40.6477 38 42.0341 37.1591 43.8636C36.3295 45.6818 35.9148 47.8977 35.9148 50.5114C35.9148 53.1477 36.3295 55.3807 37.1591 57.2102C37.9886 59.0398 39.142 60.4318 40.6193 61.3864C42.0966 62.3295 43.8125 62.8011 45.767 62.8011C47.5398 62.8011 49.0739 62.4602 50.3693 61.7784C51.6761 61.0966 52.6818 60.1307 53.3864 58.8807C54.0909 57.6193 54.4432 56.142 54.4432 54.4489L55.875 54.6705H46.3977V49.7273H60.5625V53.9205C60.5625 56.9091 59.9261 59.4943 58.6534 61.6761C57.3807 63.858 55.6307 65.5398 53.4034 66.7216C51.1761 67.892 48.6193 68.4773 45.733 68.4773C42.517 68.4773 39.6932 67.7557 37.2614 66.3125C34.8409 64.858 32.9489 62.7955 31.5852 60.125C30.233 57.4432 29.5568 54.2614 29.5568 50.5795C29.5568 47.7614 29.9545 45.2443 30.75 43.0284C31.5568 40.8125 32.6818 38.9318 34.125 37.3864C35.5682 35.8295 37.2614 34.6477 39.2045 33.8409C41.1477 33.0227 43.2614 32.6136 45.5455 32.6136C47.4773 32.6136 49.2784 32.8977 50.9489 33.4659C52.6193 34.0227 54.1023 34.8182 55.3977 35.8523C56.7045 36.8864 57.7784 38.1136 58.6193 39.5341C59.4602 40.9545 60.0114 42.5227 60.2727 44.2386H53.8295ZM77.5157 68.5114C74.8907 68.5114 72.6237 67.9659 70.7146 66.875C68.8169 65.7727 67.3566 64.2159 66.3339 62.2045C65.3112 60.1818 64.7998 57.8011 64.7998 55.0625C64.7998 52.3693 65.3112 50.0057 66.3339 47.9716C67.368 45.9261 68.8112 44.3352 70.6635 43.1989C72.5157 42.0511 74.6919 41.4773 77.1919 41.4773C78.8055 41.4773 80.3282 41.7386 81.7601 42.2614C83.2032 42.7727 84.476 43.5682 85.5782 44.6477C86.6919 45.7273 87.5669 47.1023 88.2032 48.7727C88.8396 50.4318 89.1578 52.4091 89.1578 54.7045V56.5966H67.6976V52.4375H83.243C83.2316 51.2557 82.976 50.2045 82.476 49.2841C81.976 48.3523 81.2771 47.6193 80.3794 47.0852C79.493 46.5511 78.4589 46.2841 77.2771 46.2841C76.0157 46.2841 74.9078 46.5909 73.9532 47.2045C72.9987 47.8068 72.2544 48.6023 71.7203 49.5909C71.1976 50.5682 70.9305 51.642 70.9191 52.8125V56.4432C70.9191 57.9659 71.1976 59.2727 71.7544 60.3636C72.3112 61.4432 73.0896 62.2727 74.0896 62.8523C75.0896 63.4205 76.2601 63.7045 77.601 63.7045C78.4987 63.7045 79.3112 63.5795 80.0385 63.3295C80.7657 63.0682 81.3964 62.6875 81.9305 62.1875C82.4646 61.6875 82.868 61.0682 83.1407 60.3295L88.9021 60.9773C88.5385 62.5 87.8453 63.8295 86.8226 64.9659C85.8112 66.0909 84.5157 66.9659 82.9362 67.5909C81.3566 68.2045 79.5498 68.5114 77.5157 68.5114ZM100.068 52.6591V68H93.898V41.8182H99.7957V46.267H100.103C100.705 44.8011 101.665 43.6364 102.983 42.7727C104.313 41.9091 105.955 41.4773 107.909 41.4773C109.716 41.4773 111.29 41.8636 112.631 42.6364C113.983 43.4091 115.029 44.5284 115.767 45.9943C116.517 47.4602 116.887 49.2386 116.875 51.3295V68H110.705V52.2841C110.705 50.5341 110.25 49.1648 109.341 48.1761C108.443 47.1875 107.199 46.6932 105.608 46.6932C104.529 46.6932 103.568 46.9318 102.728 47.4091C101.898 47.875 101.245 48.5511 100.767 49.4375C100.301 50.3239 100.068 51.3977 100.068 52.6591ZM134.259 68.5114C131.634 68.5114 129.367 67.9659 127.458 66.875C125.56 65.7727 124.1 64.2159 123.077 62.2045C122.054 60.1818 121.543 57.8011 121.543 55.0625C121.543 52.3693 122.054 50.0057 123.077 47.9716C124.111 45.9261 125.554 44.3352 127.407 43.1989C129.259 42.0511 131.435 41.4773 133.935 41.4773C135.549 41.4773 137.071 41.7386 138.503 42.2614C139.946 42.7727 141.219 43.5682 142.321 44.6477C143.435 45.7273 144.31 47.1023 144.946 48.7727C145.583 50.4318 145.901 52.4091 145.901 54.7045V56.5966H124.441V52.4375H139.986C139.975 51.2557 139.719 50.2045 139.219 49.2841C138.719 48.3523 138.02 47.6193 137.122 47.0852C136.236 46.5511 135.202 46.2841 134.02 46.2841C132.759 46.2841 131.651 46.5909 130.696 47.2045C129.742 47.8068 128.997 48.6023 128.463 49.5909C127.941 50.5682 127.674 51.642 127.662 52.8125V56.4432C127.662 57.9659 127.941 59.2727 128.497 60.3636C129.054 61.4432 129.833 62.2727 130.833 62.8523C131.833 63.4205 133.003 63.7045 134.344 63.7045C135.242 63.7045 136.054 63.5795 136.782 63.3295C137.509 63.0682 138.14 62.6875 138.674 62.1875C139.208 61.6875 139.611 61.0682 139.884 60.3295L145.645 60.9773C145.282 62.5 144.588 63.8295 143.566 64.9659C142.554 66.0909 141.259 66.9659 139.679 67.5909C138.1 68.2045 136.293 68.5114 134.259 68.5114ZM150.641 68V41.8182H156.624V46.1818H156.897C157.374 44.6705 158.192 43.5057 159.351 42.6875C160.522 41.858 161.857 41.4432 163.357 41.4432C163.698 41.4432 164.079 41.4602 164.499 41.4943C164.931 41.517 165.289 41.5568 165.573 41.6136V47.2898C165.312 47.1989 164.897 47.1193 164.329 47.0511C163.772 46.9716 163.232 46.9318 162.709 46.9318C161.584 46.9318 160.573 47.1761 159.675 47.6648C158.789 48.142 158.09 48.8068 157.579 49.6591C157.067 50.5114 156.812 51.4943 156.812 52.608V68H150.641ZM176.258 68.5284C174.599 68.5284 173.104 68.233 171.775 67.642C170.457 67.0398 169.411 66.1534 168.638 64.983C167.877 63.8125 167.496 62.3693 167.496 60.6534C167.496 59.1761 167.769 57.9545 168.314 56.9886C168.86 56.0227 169.604 55.25 170.547 54.6705C171.491 54.0909 172.553 53.6534 173.735 53.358C174.928 53.0511 176.161 52.8295 177.434 52.6932C178.968 52.5341 180.212 52.392 181.167 52.267C182.121 52.1307 182.814 51.9261 183.246 51.6534C183.689 51.3693 183.911 50.9318 183.911 50.3409V50.2386C183.911 48.9545 183.53 47.9602 182.769 47.2557C182.008 46.5511 180.911 46.1989 179.479 46.1989C177.968 46.1989 176.769 46.5284 175.883 47.1875C175.008 47.8466 174.417 48.625 174.11 49.5227L168.349 48.7045C168.803 47.1136 169.553 45.7841 170.599 44.7159C171.644 43.6364 172.922 42.8295 174.434 42.2955C175.945 41.75 177.616 41.4773 179.445 41.4773C180.707 41.4773 181.962 41.625 183.212 41.9205C184.462 42.2159 185.604 42.7045 186.638 43.3864C187.672 44.0568 188.502 44.9716 189.127 46.1307C189.763 47.2898 190.082 48.7386 190.082 50.4773V68H184.15V64.4034H183.945C183.57 65.1307 183.042 65.8125 182.36 66.4489C181.689 67.0739 180.843 67.5795 179.82 67.9659C178.809 68.3409 177.621 68.5284 176.258 68.5284ZM177.86 63.9943C179.099 63.9943 180.172 63.75 181.082 63.2614C181.991 62.7614 182.689 62.1023 183.178 61.2841C183.678 60.4659 183.928 59.5739 183.928 58.608V55.5227C183.735 55.6818 183.405 55.8295 182.939 55.9659C182.485 56.1023 181.974 56.2216 181.405 56.3239C180.837 56.4261 180.275 56.517 179.718 56.5966C179.161 56.6761 178.678 56.7443 178.269 56.8011C177.349 56.9261 176.525 57.1307 175.797 57.4148C175.07 57.6989 174.496 58.0966 174.076 58.608C173.655 59.108 173.445 59.7557 173.445 60.5511C173.445 61.6875 173.86 62.5455 174.689 63.125C175.519 63.7045 176.576 63.9943 177.86 63.9943ZM208.88 41.8182V46.5909H193.829V41.8182H208.88ZM197.545 35.5455H203.715V60.125C203.715 60.9545 203.84 61.5909 204.09 62.0341C204.352 62.4659 204.692 62.7614 205.113 62.9205C205.533 63.0795 205.999 63.1591 206.511 63.1591C206.897 63.1591 207.249 63.1307 207.567 63.0739C207.897 63.017 208.147 62.9659 208.317 62.9205L209.357 67.7443C209.028 67.858 208.556 67.983 207.942 68.1193C207.34 68.2557 206.602 68.3352 205.727 68.358C204.181 68.4034 202.789 68.1705 201.55 67.6591C200.312 67.1364 199.329 66.3295 198.602 65.2386C197.886 64.1477 197.533 62.7841 197.545 61.1477V35.5455ZM224.87 68.5114C222.245 68.5114 219.978 67.9659 218.069 66.875C216.171 65.7727 214.711 64.2159 213.688 62.2045C212.666 60.1818 212.154 57.8011 212.154 55.0625C212.154 52.3693 212.666 50.0057 213.688 47.9716C214.722 45.9261 216.166 44.3352 218.018 43.1989C219.87 42.0511 222.046 41.4773 224.546 41.4773C226.16 41.4773 227.683 41.7386 229.114 42.2614C230.558 42.7727 231.83 43.5682 232.933 44.6477C234.046 45.7273 234.921 47.1023 235.558 48.7727C236.194 50.4318 236.512 52.4091 236.512 54.7045V56.5966H215.052V52.4375H230.597C230.586 51.2557 230.33 50.2045 229.83 49.2841C229.33 48.3523 228.631 47.6193 227.734 47.0852C226.847 46.5511 225.813 46.2841 224.631 46.2841C223.37 46.2841 222.262 46.5909 221.308 47.2045C220.353 47.8068 219.609 48.6023 219.075 49.5909C218.552 50.5682 218.285 51.642 218.274 52.8125V56.4432C218.274 57.9659 218.552 59.2727 219.109 60.3636C219.666 61.4432 220.444 62.2727 221.444 62.8523C222.444 63.4205 223.614 63.7045 224.955 63.7045C225.853 63.7045 226.666 63.5795 227.393 63.3295C228.12 63.0682 228.751 62.6875 229.285 62.1875C229.819 61.6875 230.222 61.0682 230.495 60.3295L236.256 60.9773C235.893 62.5 235.2 63.8295 234.177 64.9659C233.166 66.0909 231.87 66.9659 230.291 67.5909C228.711 68.2045 226.904 68.5114 224.87 68.5114ZM30.4432 121V86.0909H43.5341C46.2159 86.0909 48.4659 86.5909 50.2841 87.5909C52.1136 88.5909 53.4943 89.9659 54.4261 91.7159C55.3693 93.4545 55.8409 95.4318 55.8409 97.6477C55.8409 99.8864 55.3693 101.875 54.4261 103.614C53.483 105.352 52.0909 106.722 50.25 107.722C48.4091 108.71 46.142 109.205 43.4489 109.205H34.7727V104.006H42.5966C44.1648 104.006 45.4489 103.733 46.4489 103.188C47.4489 102.642 48.1875 101.892 48.6648 100.938C49.1534 99.983 49.3977 98.8864 49.3977 97.6477C49.3977 96.4091 49.1534 95.3182 48.6648 94.375C48.1875 93.4318 47.4432 92.6989 46.4318 92.1761C45.4318 91.642 44.142 91.375 42.5625 91.375H36.767V121H30.4432ZM67.6464 121.528C65.9873 121.528 64.493 121.233 63.1635 120.642C61.8453 120.04 60.7998 119.153 60.0271 117.983C59.2657 116.812 58.8851 115.369 58.8851 113.653C58.8851 112.176 59.1578 110.955 59.7032 109.989C60.2487 109.023 60.993 108.25 61.9362 107.67C62.8794 107.091 63.9419 106.653 65.1237 106.358C66.3169 106.051 67.5498 105.83 68.8226 105.693C70.3566 105.534 71.601 105.392 72.5555 105.267C73.5101 105.131 74.2032 104.926 74.6351 104.653C75.0782 104.369 75.2998 103.932 75.2998 103.341V103.239C75.2998 101.955 74.9191 100.96 74.1578 100.256C73.3964 99.5511 72.2998 99.1989 70.868 99.1989C69.3566 99.1989 68.1578 99.5284 67.2714 100.188C66.3964 100.847 65.8055 101.625 65.4987 102.523L59.7373 101.705C60.1919 100.114 60.9419 98.7841 61.9873 97.7159C63.0328 96.6364 64.3112 95.8295 65.8226 95.2955C67.3339 94.75 69.0044 94.4773 70.8339 94.4773C72.0953 94.4773 73.351 94.625 74.601 94.9205C75.851 95.2159 76.993 95.7045 78.0271 96.3864C79.0612 97.0568 79.8907 97.9716 80.5157 99.1307C81.1521 100.29 81.4703 101.739 81.4703 103.477V121H75.5385V117.403H75.3339C74.9589 118.131 74.4305 118.812 73.7487 119.449C73.0782 120.074 72.2316 120.58 71.2089 120.966C70.1976 121.341 69.0101 121.528 67.6464 121.528ZM69.2487 116.994C70.4873 116.994 71.5612 116.75 72.4703 116.261C73.3794 115.761 74.0782 115.102 74.5669 114.284C75.0669 113.466 75.3169 112.574 75.3169 111.608V108.523C75.1237 108.682 74.7941 108.83 74.3282 108.966C73.8737 109.102 73.3623 109.222 72.7941 109.324C72.226 109.426 71.6635 109.517 71.1066 109.597C70.5498 109.676 70.0669 109.744 69.6578 109.801C68.7373 109.926 67.9135 110.131 67.1862 110.415C66.4589 110.699 65.8851 111.097 65.4646 111.608C65.0441 112.108 64.8339 112.756 64.8339 113.551C64.8339 114.688 65.2487 115.545 66.0782 116.125C66.9078 116.705 67.9646 116.994 69.2487 116.994ZM107.888 101.739L102.263 102.352C102.104 101.784 101.826 101.25 101.428 100.75C101.041 100.25 100.519 99.8466 99.8596 99.5398C99.2005 99.233 98.3937 99.0795 97.4391 99.0795C96.1551 99.0795 95.0755 99.358 94.2005 99.9148C93.3369 100.472 92.9107 101.193 92.9221 102.08C92.9107 102.841 93.1891 103.46 93.7573 103.938C94.3369 104.415 95.2914 104.807 96.621 105.114L101.087 106.068C103.564 106.602 105.405 107.449 106.61 108.608C107.826 109.767 108.439 111.284 108.451 113.159C108.439 114.807 107.956 116.261 107.002 117.523C106.058 118.773 104.746 119.75 103.064 120.455C101.382 121.159 99.4505 121.511 97.2687 121.511C94.0641 121.511 91.4846 120.841 89.5301 119.5C87.5755 118.148 86.4107 116.267 86.0357 113.858L92.0528 113.278C92.3255 114.46 92.9051 115.352 93.7914 115.955C94.6778 116.557 95.8312 116.858 97.2516 116.858C98.7176 116.858 99.8937 116.557 100.78 115.955C101.678 115.352 102.127 114.608 102.127 113.722C102.127 112.972 101.837 112.352 101.257 111.864C100.689 111.375 99.8028 111 98.5982 110.739L94.1323 109.801C91.621 109.278 89.763 108.398 88.5585 107.159C87.3539 105.909 86.7573 104.33 86.7687 102.42C86.7573 100.807 87.1948 99.4091 88.0812 98.2273C88.9789 97.0341 90.2232 96.1136 91.8141 95.4659C93.4164 94.8068 95.263 94.4773 97.3539 94.4773C100.422 94.4773 102.837 95.1307 104.598 96.4375C106.371 97.7443 107.468 99.5114 107.888 101.739ZM133.752 101.739L128.127 102.352C127.968 101.784 127.689 101.25 127.292 100.75C126.905 100.25 126.382 99.8466 125.723 99.5398C125.064 99.233 124.257 99.0795 123.303 99.0795C122.019 99.0795 120.939 99.358 120.064 99.9148C119.201 100.472 118.774 101.193 118.786 102.08C118.774 102.841 119.053 103.46 119.621 103.938C120.201 104.415 121.155 104.807 122.485 105.114L126.951 106.068C129.428 106.602 131.269 107.449 132.473 108.608C133.689 109.767 134.303 111.284 134.314 113.159C134.303 114.807 133.82 116.261 132.865 117.523C131.922 118.773 130.61 119.75 128.928 120.455C127.246 121.159 125.314 121.511 123.132 121.511C119.928 121.511 117.348 120.841 115.394 119.5C113.439 118.148 112.274 116.267 111.899 113.858L117.917 113.278C118.189 114.46 118.769 115.352 119.655 115.955C120.542 116.557 121.695 116.858 123.115 116.858C124.581 116.858 125.757 116.557 126.644 115.955C127.542 115.352 127.99 114.608 127.99 113.722C127.99 112.972 127.701 112.352 127.121 111.864C126.553 111.375 125.667 111 124.462 110.739L119.996 109.801C117.485 109.278 115.627 108.398 114.422 107.159C113.218 105.909 112.621 104.33 112.632 102.42C112.621 100.807 113.059 99.4091 113.945 98.2273C114.843 97.0341 116.087 96.1136 117.678 95.4659C119.28 94.8068 121.127 94.4773 123.218 94.4773C126.286 94.4773 128.701 95.1307 130.462 96.4375C132.235 97.7443 133.331 99.5114 133.752 101.739ZM144.326 121L136.928 94.8182H143.218L147.82 113.227H148.059L152.763 94.8182H158.985L163.689 113.125H163.945L168.479 94.8182H174.786L167.371 121H160.945L156.036 103.307H155.678L150.769 121H144.326ZM189.285 121.511C186.728 121.511 184.512 120.949 182.637 119.824C180.762 118.699 179.307 117.125 178.273 115.102C177.251 113.08 176.739 110.716 176.739 108.011C176.739 105.307 177.251 102.937 178.273 100.903C179.307 98.8693 180.762 97.2898 182.637 96.1648C184.512 95.0398 186.728 94.4773 189.285 94.4773C191.841 94.4773 194.057 95.0398 195.932 96.1648C197.807 97.2898 199.256 98.8693 200.279 100.903C201.313 102.937 201.83 105.307 201.83 108.011C201.83 110.716 201.313 113.08 200.279 115.102C199.256 117.125 197.807 118.699 195.932 119.824C194.057 120.949 191.841 121.511 189.285 121.511ZM189.319 116.568C190.705 116.568 191.864 116.187 192.796 115.426C193.728 114.653 194.421 113.619 194.876 112.324C195.341 111.028 195.574 109.585 195.574 107.994C195.574 106.392 195.341 104.943 194.876 103.648C194.421 102.341 193.728 101.301 192.796 100.528C191.864 99.7557 190.705 99.3693 189.319 99.3693C187.898 99.3693 186.716 99.7557 185.773 100.528C184.841 101.301 184.143 102.341 183.677 103.648C183.222 104.943 182.995 106.392 182.995 107.994C182.995 109.585 183.222 111.028 183.677 112.324C184.143 113.619 184.841 114.653 185.773 115.426C186.716 116.187 187.898 116.568 189.319 116.568ZM206.587 121V94.8182H212.57V99.1818H212.843C213.32 97.6705 214.138 96.5057 215.298 95.6875C216.468 94.858 217.803 94.4432 219.303 94.4432C219.644 94.4432 220.025 94.4602 220.445 94.4943C220.877 94.517 221.235 94.5568 221.519 94.6136V100.29C221.258 100.199 220.843 100.119 220.275 100.051C219.718 99.9716 219.178 99.9318 218.656 99.9318C217.531 99.9318 216.519 100.176 215.621 100.665C214.735 101.142 214.036 101.807 213.525 102.659C213.013 103.511 212.758 104.494 212.758 105.608V121H206.587ZM233.776 121.46C231.72 121.46 229.879 120.932 228.254 119.875C226.629 118.818 225.345 117.284 224.401 115.273C223.458 113.261 222.987 110.818 222.987 107.943C222.987 105.034 223.464 102.58 224.418 100.58C225.384 98.5682 226.685 97.0511 228.322 96.0284C229.958 94.9943 231.782 94.4773 233.793 94.4773C235.327 94.4773 236.589 94.7386 237.577 95.2614C238.566 95.7727 239.35 96.392 239.93 97.1193C240.509 97.8352 240.958 98.5114 241.276 99.1477H241.532V86.0909H247.72V121H241.651V116.875H241.276C240.958 117.511 240.498 118.187 239.896 118.903C239.293 119.608 238.498 120.21 237.509 120.71C236.521 121.21 235.276 121.46 233.776 121.46ZM235.498 116.398C236.805 116.398 237.918 116.045 238.839 115.341C239.759 114.625 240.458 113.631 240.935 112.358C241.413 111.085 241.651 109.602 241.651 107.909C241.651 106.216 241.413 104.744 240.935 103.494C240.47 102.244 239.776 101.273 238.856 100.58C237.947 99.8864 236.827 99.5398 235.498 99.5398C234.123 99.5398 232.975 99.8977 232.055 100.614C231.134 101.33 230.441 102.318 229.975 103.58C229.509 104.841 229.276 106.284 229.276 107.909C229.276 109.545 229.509 111.006 229.975 112.29C230.452 113.562 231.151 114.568 232.072 115.307C233.004 116.034 234.146 116.398 235.498 116.398ZM274.508 101.739L268.883 102.352C268.724 101.784 268.446 101.25 268.048 100.75C267.661 100.25 267.139 99.8466 266.48 99.5398C265.821 99.233 265.014 99.0795 264.059 99.0795C262.775 99.0795 261.696 99.358 260.821 99.9148C259.957 100.472 259.531 101.193 259.542 102.08C259.531 102.841 259.809 103.46 260.377 103.938C260.957 104.415 261.911 104.807 263.241 105.114L267.707 106.068C270.184 106.602 272.025 107.449 273.23 108.608C274.446 109.767 275.059 111.284 275.071 113.159C275.059 114.807 274.576 116.261 273.622 117.523C272.678 118.773 271.366 119.75 269.684 120.455C268.002 121.159 266.071 121.511 263.889 121.511C260.684 121.511 258.105 120.841 256.15 119.5C254.196 118.148 253.031 116.267 252.656 113.858L258.673 113.278C258.946 114.46 259.525 115.352 260.411 115.955C261.298 116.557 262.451 116.858 263.872 116.858C265.338 116.858 266.514 116.557 267.4 115.955C268.298 115.352 268.747 114.608 268.747 113.722C268.747 112.972 268.457 112.352 267.877 111.864C267.309 111.375 266.423 111 265.218 110.739L260.752 109.801C258.241 109.278 256.383 108.398 255.178 107.159C253.974 105.909 253.377 104.33 253.389 102.42C253.377 100.807 253.815 99.4091 254.701 98.2273C255.599 97.0341 256.843 96.1136 258.434 95.4659C260.036 94.8068 261.883 94.4773 263.974 94.4773C267.042 94.4773 269.457 95.1307 271.218 96.4375C272.991 97.7443 274.088 99.5114 274.508 101.739ZM37.7898 174L27.9375 139.091H34.7386L41.0284 164.744H41.3523L48.0682 139.091H54.2557L60.9886 164.761H61.2955L67.5852 139.091H74.3864L64.5341 174H58.2955L51.3068 149.506H51.0341L44.0284 174H37.7898ZM78.0186 174V147.818H84.189V174H78.0186ZM81.1209 144.102C80.1436 144.102 79.3027 143.778 78.5981 143.131C77.8936 142.472 77.5413 141.682 77.5413 140.761C77.5413 139.83 77.8936 139.04 78.5981 138.392C79.3027 137.733 80.1436 137.403 81.1209 137.403C82.1095 137.403 82.9504 137.733 83.6436 138.392C84.3481 139.04 84.7004 139.83 84.7004 140.761C84.7004 141.682 84.3481 142.472 83.6436 143.131C82.9504 143.778 82.1095 144.102 81.1209 144.102ZM103.128 147.818V152.591H88.0769V147.818H103.128ZM91.7928 141.545H97.9633V166.125C97.9633 166.955 98.0883 167.591 98.3383 168.034C98.5997 168.466 98.9406 168.761 99.361 168.92C99.7815 169.08 100.247 169.159 100.759 169.159C101.145 169.159 101.497 169.131 101.816 169.074C102.145 169.017 102.395 168.966 102.566 168.92L103.605 173.744C103.276 173.858 102.804 173.983 102.191 174.119C101.588 174.256 100.85 174.335 99.9747 174.358C98.4292 174.403 97.0372 174.17 95.7985 173.659C94.5599 173.136 93.5769 172.33 92.8497 171.239C92.1338 170.148 91.7815 168.784 91.7928 167.148V141.545ZM114.542 158.659V174H108.371V139.091H114.405V152.267H114.712C115.326 150.79 116.274 149.625 117.559 148.773C118.854 147.909 120.502 147.477 122.502 147.477C124.32 147.477 125.905 147.858 127.257 148.619C128.61 149.381 129.655 150.494 130.394 151.96C131.144 153.426 131.519 155.216 131.519 157.33V174H125.348V158.284C125.348 156.523 124.894 155.153 123.985 154.176C123.087 153.187 121.826 152.693 120.201 152.693C119.11 152.693 118.132 152.932 117.269 153.409C116.417 153.875 115.746 154.551 115.257 155.438C114.78 156.324 114.542 157.398 114.542 158.659ZM149.028 174V139.091H171.732V144.392H155.351V153.869H170.556V159.17H155.351V168.699H171.868V174H149.028ZM184.965 174.528C183.306 174.528 181.812 174.233 180.482 173.642C179.164 173.04 178.119 172.153 177.346 170.983C176.584 169.812 176.204 168.369 176.204 166.653C176.204 165.176 176.477 163.955 177.022 162.989C177.567 162.023 178.312 161.25 179.255 160.67C180.198 160.091 181.261 159.653 182.442 159.358C183.636 159.051 184.869 158.83 186.141 158.693C187.675 158.534 188.92 158.392 189.874 158.267C190.829 158.131 191.522 157.926 191.954 157.653C192.397 157.369 192.619 156.932 192.619 156.341V156.239C192.619 154.955 192.238 153.96 191.477 153.256C190.715 152.551 189.619 152.199 188.187 152.199C186.675 152.199 185.477 152.528 184.59 153.188C183.715 153.847 183.124 154.625 182.817 155.523L177.056 154.705C177.511 153.114 178.261 151.784 179.306 150.716C180.352 149.636 181.63 148.83 183.141 148.295C184.653 147.75 186.323 147.477 188.153 147.477C189.414 147.477 190.67 147.625 191.92 147.92C193.17 148.216 194.312 148.705 195.346 149.386C196.38 150.057 197.209 150.972 197.834 152.131C198.471 153.29 198.789 154.739 198.789 156.477V174H192.857V170.403H192.653C192.278 171.131 191.749 171.812 191.067 172.449C190.397 173.074 189.55 173.58 188.528 173.966C187.516 174.341 186.329 174.528 184.965 174.528ZM186.567 169.994C187.806 169.994 188.88 169.75 189.789 169.261C190.698 168.761 191.397 168.102 191.886 167.284C192.386 166.466 192.636 165.574 192.636 164.608V161.523C192.442 161.682 192.113 161.83 191.647 161.966C191.192 162.102 190.681 162.222 190.113 162.324C189.545 162.426 188.982 162.517 188.425 162.597C187.869 162.676 187.386 162.744 186.977 162.801C186.056 162.926 185.232 163.131 184.505 163.415C183.778 163.699 183.204 164.097 182.783 164.608C182.363 165.108 182.153 165.756 182.153 166.551C182.153 167.688 182.567 168.545 183.397 169.125C184.227 169.705 185.283 169.994 186.567 169.994ZM225.207 154.739L219.582 155.352C219.423 154.784 219.144 154.25 218.747 153.75C218.36 153.25 217.837 152.847 217.178 152.54C216.519 152.233 215.712 152.08 214.758 152.08C213.474 152.08 212.394 152.358 211.519 152.915C210.656 153.472 210.229 154.193 210.241 155.08C210.229 155.841 210.508 156.46 211.076 156.938C211.656 157.415 212.61 157.807 213.94 158.114L218.406 159.068C220.883 159.602 222.724 160.449 223.928 161.608C225.144 162.767 225.758 164.284 225.769 166.159C225.758 167.807 225.275 169.261 224.32 170.523C223.377 171.773 222.065 172.75 220.383 173.455C218.701 174.159 216.769 174.511 214.587 174.511C211.383 174.511 208.803 173.841 206.849 172.5C204.894 171.148 203.729 169.267 203.354 166.858L209.372 166.278C209.644 167.46 210.224 168.352 211.11 168.955C211.997 169.557 213.15 169.858 214.57 169.858C216.036 169.858 217.212 169.557 218.099 168.955C218.997 168.352 219.445 167.608 219.445 166.722C219.445 165.972 219.156 165.352 218.576 164.864C218.008 164.375 217.122 164 215.917 163.739L211.451 162.801C208.94 162.278 207.082 161.398 205.877 160.159C204.673 158.909 204.076 157.33 204.087 155.42C204.076 153.807 204.514 152.409 205.4 151.227C206.298 150.034 207.542 149.114 209.133 148.466C210.735 147.807 212.582 147.477 214.673 147.477C217.741 147.477 220.156 148.131 221.917 149.438C223.69 150.744 224.786 152.511 225.207 154.739ZM241.968 174.511C239.343 174.511 237.076 173.966 235.167 172.875C233.269 171.773 231.809 170.216 230.786 168.205C229.764 166.182 229.252 163.801 229.252 161.062C229.252 158.369 229.764 156.006 230.786 153.972C231.821 151.926 233.264 150.335 235.116 149.199C236.968 148.051 239.144 147.477 241.644 147.477C243.258 147.477 244.781 147.739 246.213 148.261C247.656 148.773 248.928 149.568 250.031 150.648C251.144 151.727 252.019 153.102 252.656 154.773C253.292 156.432 253.61 158.409 253.61 160.705V162.597H232.15V158.438H247.696C247.684 157.256 247.428 156.205 246.928 155.284C246.428 154.352 245.73 153.619 244.832 153.085C243.946 152.551 242.911 152.284 241.73 152.284C240.468 152.284 239.36 152.591 238.406 153.205C237.451 153.807 236.707 154.602 236.173 155.591C235.65 156.568 235.383 157.642 235.372 158.812V162.443C235.372 163.966 235.65 165.273 236.207 166.364C236.764 167.443 237.542 168.273 238.542 168.852C239.542 169.42 240.713 169.705 242.053 169.705C242.951 169.705 243.764 169.58 244.491 169.33C245.218 169.068 245.849 168.688 246.383 168.188C246.917 167.688 247.321 167.068 247.593 166.33L253.355 166.977C252.991 168.5 252.298 169.83 251.275 170.966C250.264 172.091 248.968 172.966 247.389 173.591C245.809 174.205 244.002 174.511 241.968 174.511ZM265.902 139.091L265.339 163.739H259.85L259.305 139.091H265.902ZM262.595 174.375C261.561 174.375 260.674 174.011 259.936 173.284C259.208 172.557 258.845 171.67 258.845 170.625C258.845 169.602 259.208 168.727 259.936 168C260.674 167.273 261.561 166.909 262.595 166.909C263.606 166.909 264.481 167.273 265.22 168C265.97 168.727 266.345 169.602 266.345 170.625C266.345 171.318 266.169 171.949 265.816 172.517C265.475 173.085 265.021 173.54 264.453 173.881C263.896 174.21 263.277 174.375 262.595 174.375Z" fill="white"/>
    <rect x="28" y="215" width="345" height="59" rx="29.5" fill="#B40000"/>
    <path d="M59.9602 251.727L60.3523 244.824L54.5568 248.625L52.4773 245.011L58.6648 241.909L52.4773 238.807L54.5568 235.193L60.3523 238.994L59.9602 232.091H64.1023L63.7273 238.994L69.5227 235.193L71.6023 238.807L65.3977 241.909L71.6023 245.011L69.5227 248.625L63.7273 244.824L64.1023 251.727H59.9602ZM85.5427 251.727L85.9348 244.824L80.1393 248.625L78.0598 245.011L84.2473 241.909L78.0598 238.807L80.1393 235.193L85.9348 238.994L85.5427 232.091H89.6848L89.3098 238.994L95.1052 235.193L97.1848 238.807L90.9802 241.909L97.1848 245.011L95.1052 248.625L89.3098 244.824L89.6848 251.727H85.5427ZM111.125 251.727L111.517 244.824L105.722 248.625L103.642 245.011L109.83 241.909L103.642 238.807L105.722 235.193L111.517 238.994L111.125 232.091H115.267L114.892 238.994L120.688 235.193L122.767 238.807L116.563 241.909L122.767 245.011L120.688 248.625L114.892 244.824L115.267 251.727H111.125ZM136.708 251.727L137.1 244.824L131.304 248.625L129.225 245.011L135.412 241.909L129.225 238.807L131.304 235.193L137.1 238.994L136.708 232.091H140.85L140.475 238.994L146.27 235.193L148.35 238.807L142.145 241.909L148.35 245.011L146.27 248.625L140.475 244.824L140.85 251.727H136.708ZM162.29 251.727L162.682 244.824L156.887 248.625L154.807 245.011L160.995 241.909L154.807 238.807L156.887 235.193L162.682 238.994L162.29 232.091H166.432L166.057 238.994L171.853 235.193L173.932 238.807L167.728 241.909L173.932 245.011L171.853 248.625L166.057 244.824L166.432 251.727H162.29ZM187.873 251.727L188.265 244.824L182.469 248.625L180.39 245.011L186.577 241.909L180.39 238.807L182.469 235.193L188.265 238.994L187.873 232.091H192.015L191.64 238.994L197.435 235.193L199.515 238.807L193.31 241.909L199.515 245.011L197.435 248.625L191.64 244.824L192.015 251.727H187.873ZM213.455 251.727L213.847 244.824L208.052 248.625L205.972 245.011L212.16 241.909L205.972 238.807L208.052 235.193L213.847 238.994L213.455 232.091H217.597L217.222 238.994L223.018 235.193L225.097 238.807L218.893 241.909L225.097 245.011L223.018 248.625L217.222 244.824L217.597 251.727H213.455ZM239.038 251.727L239.43 244.824L233.634 248.625L231.555 245.011L237.742 241.909L231.555 238.807L233.634 235.193L239.43 238.994L239.038 232.091H243.18L242.805 238.994L248.6 235.193L250.68 238.807L244.475 241.909L250.68 245.011L248.6 248.625L242.805 244.824L243.18 251.727H239.038ZM264.62 251.727L265.012 244.824L259.217 248.625L257.137 245.011L263.325 241.909L257.137 238.807L259.217 235.193L265.012 238.994L264.62 232.091H268.762L268.387 238.994L274.183 235.193L276.262 238.807L270.058 241.909L276.262 245.011L274.183 248.625L268.387 244.824L268.762 251.727H264.62Z" fill="white"/>
    <rect x="283" y="224" width="4" height="41" rx="2" fill="white"/>
    <g style="mix-blend-mode:screen">
        <rect x="139" y="130" width="139" height="54" rx="16" fill="#FF6232"/>
    </g>
</svg>