<svg
        width="1920"
        height="1080"
        viewBox="0 0 160 90"
        fill="none"
        stroke="none"
        xmlns="http://www.w3.org/2000/svg"
        font-family="system-ui"
>
    <filter id="blur" filterUnits="userSpaceOnUse">
        <feGaussianBlur stdDeviation="30" in="SourceGraphic"/>
    </filter>
    <rect width="100%" height="100%" fill="#000"/>
    <g filter="url(#blur)">
        <circle cx="0" cy="0" fill="#f0a" r="40"/>
        <circle cx="160" cy="90" fill="#20f" r="20"/>
    </g>
    <text x="10" y="20" fill="#fff" font-size="13" style="font-weight:600">Generate Passwords
    </text>
    <text x="10" y="35" fill="#fff" font-size="13" style="font-weight:600">With Ease</text>
    <path
            transform="translate(10, 50)"
            d="M6 15A1 1 0 016 5 1 1 0 016 15M6 13A1 1 0 006 7 1 1 0 006 13M10.9 11H14V13H16V11H17V15H19V11H20V14H22V11H23A1 1 0 0023 9H10.9Q11.1 10 10.9 11"
            fill="#fff"
    />
    <rect x="45" y="52" fill="#fff3" width="63" height="16" rx="8"/>
    <text x="50" y="66.5" fill="#fff" font-size="20" style="font-weight:600">···········</text>
</svg>