<?xml version="1.0" encoding="utf-8"?>
<svg width="552" height="414" viewBox="0 0 552 414" fill="none" xmlns="http://www.w3.org/2000/svg">
    <defs>
        <clipPath id="clip_path_1">
            <rect width="269" height="58" rx="63" />
        </clipPath>
        <clipPath id="clip_path_2">
            <rect width="105" height="49" rx="27" />
        </clipPath>
    </defs>
    <g>
        <rect width="552" height="414" fill="#FF5D41" fill-rule="evenodd" />
        <path id="Rectangle" d="M462 0C485.199 0 504 18.8009 504 42L504 324C504 347.199 485.199 366 462 366L42 366C18.8009 366 0 347.199 0 324L0 42C0 18.8009 18.8009 0 42 0L462 0Z" fill="#FFF4E6" transform="translate(24 24)" />
        <path id="Rectangle" d="M80 0C93.809 0 105 11.191 105 25L105 33C105 46.809 93.809 58 80 58L25 58C11.191 58 0 46.809 0 33L0 25C0 11.191 11.191 0 25 0L80 0Z" fill="#292626" transform="translate(333 265)" />
        <g transform="translate(53 51)">
            <path d="M27.9474 23.6861Q27.0774 20.7919 24.8846 19.1406Q22.6918 17.4893 19.407 17.4893Q16.4773 17.4893 14.1868 18.9631Q11.8963 20.4368 10.5913 23.2777Q9.28622 26.1186 9.28622 30.2202Q9.28622 36.3991 12.136 39.7106Q14.9858 43.022 19.549 43.022Q23.6506 43.022 26.0831 40.7315Q28.5156 38.4411 28.5867 34.5526L20.206 34.5526L20.206 29.4034L34.9609 29.4034L34.9609 33.7713Q34.9609 38.4588 32.9723 41.859Q30.9837 45.2592 27.5036 47.0969Q24.0234 48.9347 19.5135 48.9347Q14.5064 48.9347 10.7067 46.6708Q6.90696 44.407 4.78516 40.2255Q2.66335 36.044 2.66335 30.2912Q2.66335 24.4318 4.8473 20.2415Q7.03125 16.0511 10.7955 13.8139Q14.5597 11.5767 19.3182 11.5767Q23.3487 11.5767 26.6158 13.1214Q29.8828 14.6662 31.9957 17.3917Q34.1087 20.1172 34.6591 23.6861L27.9474 23.6861ZM51.225 48.9702Q47.1234 48.9702 44.1494 47.2479Q41.1753 45.5256 39.5773 42.3828Q37.9793 39.2401 37.9793 34.9609Q37.9793 30.7528 39.5773 27.5657Q41.1753 24.3786 44.0783 22.5941Q46.9814 20.8097 50.8876 20.8097Q54.2435 20.8097 57.0844 22.2567Q59.9253 23.7038 61.6387 26.7489Q63.3521 29.794 63.3521 34.5881L63.3521 36.5589L44.3535 36.5589Q44.4068 40.0568 46.2978 42.0099Q48.1888 43.9631 51.3138 43.9631Q53.3912 43.9631 54.9093 43.0664Q56.4274 42.1697 57.0844 40.4474L63.0858 41.1222Q62.2335 44.6733 59.1174 46.8217Q56.0013 48.9702 51.225 48.9702ZM44.3713 32.2266L57.1909 32.2266Q57.1732 29.4389 55.4597 27.6278Q53.7463 25.8168 50.9764 25.8168Q48.1 25.8168 46.3067 27.7166Q44.5134 29.6165 44.3713 32.2266ZM73.3129 32.4574L73.3129 48.4375L66.8854 48.4375L66.8854 21.1648L73.0288 21.1648L73.0288 25.799L73.3484 25.799Q74.2895 23.5263 76.358 22.168Q78.4266 20.8097 81.4805 20.8097Q85.7064 20.8097 88.2721 23.4908Q90.8378 26.1719 90.82 31.0724L90.82 48.4375L84.3925 48.4375L84.3925 32.0668Q84.3925 29.3324 82.9809 27.7876Q81.5693 26.2429 79.0835 26.2429Q76.5445 26.2429 74.9287 27.8675Q73.3129 29.4922 73.3129 32.4574ZM107.546 48.9702Q103.444 48.9702 100.47 47.2479Q97.496 45.5256 95.898 42.3828Q94.3 39.2401 94.3 34.9609Q94.3 30.7528 95.898 27.5657Q97.496 24.3786 100.399 22.5941Q103.302 20.8097 107.208 20.8097Q110.564 20.8097 113.405 22.2567Q116.246 23.7038 117.959 26.7489Q119.673 29.794 119.673 34.5881L119.673 36.5589L100.674 36.5589Q100.728 40.0568 102.619 42.0099Q104.51 43.9631 107.635 43.9631Q109.712 43.9631 111.23 43.0664Q112.748 42.1697 113.405 40.4474L119.407 41.1222Q118.554 44.6733 115.438 46.8217Q112.322 48.9702 107.546 48.9702ZM100.692 32.2266L113.512 32.2266Q113.494 29.4389 111.78 27.6278Q110.067 25.8168 107.297 25.8168Q104.421 25.8168 102.627 27.7166Q100.834 29.6165 100.692 32.2266ZM123.206 48.4375L123.206 21.1648L129.438 21.1648L129.438 25.7102L129.722 25.7102Q130.468 23.331 132.288 22.0526Q134.108 20.7742 136.452 20.7741Q136.985 20.7741 137.65 20.8185Q138.316 20.8629 138.76 20.9517L138.76 26.8643Q138.352 26.7223 137.473 26.6069Q136.594 26.4915 135.777 26.4915Q133.132 26.4915 131.383 28.1516Q129.634 29.8118 129.634 32.4041L129.634 48.4375L123.206 48.4375ZM148.472 48.9879Q144.566 48.9879 141.956 46.8928Q139.346 44.7976 139.346 40.7848Q139.346 37.7131 140.828 36.0174Q142.311 34.3217 144.681 33.5494Q147.052 32.777 149.697 32.4929Q153.302 32.1023 154.873 31.7649Q156.445 31.4276 156.445 30.0426L156.445 29.9361Q156.445 27.9297 155.255 26.8288Q154.065 25.728 151.828 25.728Q149.467 25.728 148.091 26.7578Q146.714 27.7876 146.235 29.1903L140.234 28.3381Q141.299 24.6094 144.397 22.7095Q147.496 20.8097 151.793 20.8097Q153.746 20.8097 155.699 21.2713Q157.652 21.733 159.277 22.7983Q160.901 23.8636 161.887 25.6747Q162.872 27.4858 162.872 30.1847L162.872 48.4375L156.693 48.4375L156.693 44.6911L156.48 44.6911Q155.61 46.4134 153.648 47.7006Q151.686 48.9879 148.472 48.9879ZM150.141 44.2649Q153.053 44.2649 154.758 42.5959Q156.462 40.9268 156.462 38.6541L156.462 35.4403Q156.054 35.7777 154.962 36.0352Q153.87 36.2926 152.645 36.4702Q151.42 36.6477 150.567 36.772Q148.419 37.0739 146.981 37.9528Q145.543 38.8317 145.543 40.6783Q145.543 42.4538 146.839 43.3594Q148.135 44.2649 150.141 44.2649ZM181.072 21.1648L181.072 26.1364L175.692 26.1364L175.692 40.2344Q175.692 42.1697 176.544 42.7823Q177.396 43.3949 178.604 43.3949Q179.207 43.3949 179.713 43.3061Q180.219 43.2173 180.486 43.1463L181.569 48.1712Q181.054 48.3487 180.104 48.5618Q179.154 48.7749 177.787 48.8104Q174.165 48.9169 171.705 47.0348Q169.246 45.1527 169.264 41.2997L169.264 26.1364L165.393 26.1364L165.393 21.1648L169.264 21.1648L169.264 14.6307L175.692 14.6307L175.692 21.1648L181.072 21.1648ZM196.341 48.9702Q192.24 48.9702 189.266 47.2479Q186.292 45.5256 184.694 42.3828Q183.096 39.2401 183.096 34.9609Q183.096 30.7528 184.694 27.5657Q186.292 24.3786 189.195 22.5941Q192.098 20.8097 196.004 20.8097Q199.36 20.8097 202.201 22.2567Q205.042 23.7038 206.755 26.7489Q208.468 29.794 208.468 34.5881L208.468 36.5589L189.47 36.5589Q189.523 40.0568 191.414 42.0099Q193.305 43.9631 196.43 43.9631Q198.508 43.9631 200.026 43.0664Q201.544 42.1697 202.201 40.4474L208.202 41.1222Q207.35 44.6733 204.234 46.8217Q201.118 48.9702 196.341 48.9702ZM189.488 32.2266L202.307 32.2266Q202.289 29.4389 200.576 27.6278Q198.863 25.8168 196.093 25.8168Q193.216 25.8168 191.423 27.7166Q189.63 29.6165 189.488 32.2266Z" fill="#292626" />
            <path d="M3.58665 48.4375L3.58665 12.0739L17.223 12.0739Q21.4134 12.0739 24.2631 13.6364Q27.1129 15.1989 28.5778 17.9155Q30.0426 20.6321 30.0426 24.1122Q30.0426 27.6101 28.5689 30.3267Q27.0952 33.0433 24.2188 34.5969Q21.3423 36.1506 17.1342 36.1506L10.174 36.1506L10.174 48.4375L3.58665 48.4375ZM10.174 30.7351L16.2465 30.7351Q19.9219 30.7351 21.6264 28.8707Q23.331 27.0064 23.331 24.1122Q23.331 21.2003 21.6264 19.3892Q19.9219 17.5781 16.2109 17.5781L10.174 17.5781L10.174 30.7351ZM40.9445 48.9879Q37.0382 48.9879 34.4281 46.8928Q31.818 44.7976 31.818 40.7848Q31.818 37.7131 33.3006 36.0174Q34.7832 34.3217 37.1536 33.5494Q39.524 32.777 42.1696 32.4929Q45.774 32.1023 47.3454 31.7649Q48.9168 31.4276 48.9168 30.0426L48.9168 29.9361Q48.9168 27.9297 47.7271 26.8288Q46.5375 25.728 44.3003 25.728Q41.9388 25.728 40.5627 26.7578Q39.1866 27.7876 38.7072 29.1903L32.7058 28.3381Q33.7712 24.6094 36.8695 22.7095Q39.9679 20.8097 44.2648 20.8097Q46.2179 20.8097 48.171 21.2713Q50.1241 21.733 51.7488 22.7983Q53.3734 23.8636 54.3589 25.6747Q55.3443 27.4858 55.3443 30.1847L55.3443 48.4375L49.1653 48.4375L49.1653 44.6911L48.9523 44.6911Q48.0822 46.4134 46.1202 47.7006Q44.1582 48.9879 40.9445 48.9879ZM42.6135 44.2649Q45.5254 44.2649 47.23 42.5959Q48.9345 40.9268 48.9345 38.6541L48.9345 35.4403Q48.5261 35.7777 47.4342 36.0352Q46.3422 36.2926 45.117 36.4702Q43.8919 36.6477 43.0396 36.772Q40.8912 37.0739 39.453 37.9528Q38.0148 38.8317 38.0148 40.6783Q38.0148 42.4538 39.3109 43.3594Q40.6071 44.2649 42.6135 44.2649ZM81.4805 28.3736L75.6212 29.0128Q75.2483 27.6634 74.032 26.6335Q72.8158 25.6037 70.5963 25.6037Q68.5899 25.6037 67.2316 26.4737Q65.8733 27.3438 65.8911 28.7287Q65.8733 29.9183 66.77 30.6729Q67.6666 31.4276 69.744 31.8892L74.396 32.8835Q82.0487 34.5526 82.0665 40.2699Q82.0665 42.8445 80.575 44.8065Q79.0835 46.7685 76.4557 47.8693Q73.8278 48.9702 70.4187 48.9702Q65.3939 48.9702 62.3577 46.8572Q59.3214 44.7443 58.7178 40.9979L64.9855 40.3942Q65.82 44.1229 70.401 44.1229Q72.6915 44.1229 74.0853 43.1907Q75.4791 42.2585 75.4791 40.8558Q75.4791 38.5653 71.8037 37.7486L67.1517 36.772Q63.2277 35.9553 61.3456 34.011Q59.4635 32.0668 59.4813 29.0838Q59.4813 26.5625 60.8662 24.707Q62.2511 22.8516 64.7369 21.8306Q67.2227 20.8097 70.5075 20.8097Q75.3016 20.8097 78.0626 22.8604Q80.8236 24.9112 81.4805 28.3736ZM107.031 28.3736L101.171 29.0128Q100.799 27.6634 99.5823 26.6335Q98.3661 25.6037 96.1466 25.6037Q94.1402 25.6037 92.7819 26.4737Q91.4236 27.3438 91.4413 28.7287Q91.4236 29.9183 92.3202 30.6729Q93.2169 31.4276 95.2943 31.8892L99.9463 32.8835Q107.599 34.5526 107.617 40.2699Q107.617 42.8445 106.125 44.8065Q104.634 46.7685 102.006 47.8693Q99.3781 48.9702 95.969 48.9702Q90.9442 48.9702 87.908 46.8572Q84.8717 44.7443 84.268 40.9979L90.5358 40.3942Q91.3703 44.1229 95.9513 44.1229Q98.2418 44.1229 99.6356 43.1907Q101.029 42.2585 101.029 40.8558Q101.029 38.5653 97.354 37.7486L92.702 36.772Q88.778 35.9553 86.8959 34.011Q85.0138 32.0668 85.0315 29.0838Q85.0315 26.5625 86.4165 24.707Q87.8014 22.8516 90.2872 21.8306Q92.773 20.8097 96.0578 20.8097Q100.852 20.8097 103.613 22.8604Q106.374 24.9112 107.031 28.3736ZM116.654 48.4375L108.948 21.1648L115.5 21.1648L120.294 40.3409L120.543 40.3409L125.443 21.1648L131.924 21.1648L136.825 40.2344L137.091 40.2344L141.814 21.1648L148.384 21.1648L140.66 48.4375L133.966 48.4375L128.852 30.0071L128.48 30.0071L123.366 48.4375L116.654 48.4375ZM162.144 48.9702Q158.149 48.9702 155.219 47.2124Q152.29 45.4545 150.683 42.2852Q149.076 39.1158 149.076 34.9077Q149.076 30.6818 150.683 27.5124Q152.29 24.343 155.219 22.5763Q158.149 20.8097 162.144 20.8097Q166.139 20.8097 169.078 22.5763Q172.016 24.343 173.614 27.5124Q175.212 30.6818 175.212 34.9077Q175.212 39.1158 173.614 42.2852Q172.016 45.4545 169.078 47.2124Q166.139 48.9702 162.144 48.9702ZM162.18 43.821Q164.364 43.821 165.811 42.6314Q167.258 41.4418 167.977 39.4087Q168.696 37.3757 168.696 34.8899Q168.696 32.3864 167.977 30.3533Q167.258 28.3203 165.811 27.1129Q164.364 25.9055 162.18 25.9055Q159.978 25.9055 158.513 27.1129Q157.048 28.3203 156.32 30.3533Q155.592 32.3864 155.592 34.8899Q155.592 37.3757 156.32 39.4087Q157.048 41.4418 158.513 42.6314Q159.978 43.821 162.18 43.821ZM178.746 48.4375L178.746 21.1648L184.978 21.1648L184.978 25.7102L185.262 25.7102Q186.008 23.331 187.828 22.0526Q189.648 20.7742 191.991 20.7741Q192.524 20.7741 193.19 20.8185Q193.856 20.8629 194.3 20.9517L194.3 26.8643Q193.891 26.7223 193.012 26.6069Q192.133 26.4915 191.317 26.4915Q188.671 26.4915 186.922 28.1516Q185.173 29.8118 185.173 32.4041L185.173 48.4375L178.746 48.4375ZM205.663 48.9169Q202.449 48.9169 199.91 47.2656Q197.371 45.6143 195.897 42.4716Q194.424 39.3288 194.424 34.8366Q194.424 30.2912 195.924 27.1662Q197.424 24.0412 199.981 22.4254Q202.538 20.8097 205.681 20.8097Q208.096 20.8097 209.631 21.6175Q211.167 22.4254 212.082 23.5529Q212.996 24.6804 213.476 25.6747L213.742 25.6747L213.742 12.0739L220.187 12.0739L220.187 48.4375L213.866 48.4375L213.866 44.1406L213.476 44.1406Q212.978 45.1349 212.037 46.2447Q211.096 47.3544 209.552 48.1357Q208.007 48.9169 205.663 48.9169ZM207.456 43.6435Q210.528 43.6435 212.197 41.2021Q213.866 38.7607 213.866 34.8011Q213.866 30.8239 212.215 28.4535Q210.564 26.0831 207.456 26.0831Q204.243 26.0831 202.609 28.5334Q200.976 30.9837 200.976 34.8011Q200.976 38.6364 202.627 41.1399Q204.278 43.6435 207.456 43.6435ZM246.714 28.3736L240.855 29.0128Q240.482 27.6634 239.266 26.6335Q238.049 25.6037 235.83 25.6037Q233.823 25.6037 232.465 26.4737Q231.107 27.3438 231.125 28.7287Q231.107 29.9183 232.003 30.6729Q232.9 31.4276 234.978 31.8892L239.63 32.8835Q247.282 34.5526 247.3 40.2699Q247.3 42.8445 245.809 44.8065Q244.317 46.7685 241.689 47.8693Q239.061 48.9702 235.652 48.9702Q230.627 48.9702 227.591 46.8572Q224.555 44.7443 223.951 40.9979L230.219 40.3942Q231.054 44.1229 235.635 44.1229Q237.925 44.1229 239.319 43.1907Q240.713 42.2585 240.713 40.8558Q240.713 38.5653 237.037 37.7486L232.385 36.772Q228.461 35.9553 226.579 34.011Q224.697 32.0668 224.715 29.0838Q224.715 26.5625 226.1 24.707Q227.485 22.8516 229.97 21.8306Q232.456 20.8097 235.741 20.8097Q240.535 20.8097 243.296 22.8604Q246.057 24.9112 246.714 28.3736Z" transform="translate(0 60.511)" fill="#292626" />
            <path d="M8.93111 48.4375L1.22514 21.1648L7.77699 21.1648L12.571 40.3409L12.8196 40.3409L17.7202 21.1648L24.201 21.1648L29.1016 40.2344L29.3679 40.2344L34.0909 21.1648L40.6605 21.1648L32.9368 48.4375L26.2429 48.4375L21.1293 30.0071L20.7564 30.0071L15.6428 48.4375L8.93111 48.4375ZM43.2705 48.4375L43.2705 21.1648L49.698 21.1648L49.698 48.4375L43.2705 48.4375ZM46.502 17.294Q44.9572 17.294 43.8653 16.2731Q42.7733 15.2521 42.7733 13.8139Q42.7733 12.358 43.8653 11.337Q44.9572 10.3161 46.502 10.3161Q48.029 10.3161 49.1209 11.337Q50.2129 12.358 50.2129 13.8139Q50.2129 15.2521 49.1209 16.2731Q48.029 17.294 46.502 17.294ZM68.0217 21.1648L68.0217 26.1364L62.6418 26.1364L62.6418 40.2344Q62.6418 42.1697 63.494 42.7823Q64.3463 43.3949 65.5537 43.3949Q66.1574 43.3949 66.6634 43.3061Q67.1695 43.2173 67.4358 43.1463L68.5189 48.1712Q68.004 48.3487 67.054 48.5618Q66.1041 48.7749 64.7369 48.8104Q61.1148 48.9169 58.6556 47.0348Q56.1964 45.1527 56.2142 41.2997L56.2142 26.1364L52.3435 26.1364L52.3435 21.1648L56.2142 21.1648L56.2142 14.6307L62.6418 14.6307L62.6418 21.1648L68.0217 21.1648ZM78.4974 32.4574L78.4974 48.4375L72.0699 48.4375L72.0699 12.0739L78.3554 12.0739L78.3554 25.799L78.675 25.799Q79.616 23.473 81.6313 22.1413Q83.6466 20.8097 86.7893 20.8097Q91.0329 20.8097 93.6075 23.473Q96.1821 26.1364 96.1821 31.0724L96.1821 48.4375L89.7545 48.4375L89.7545 32.0668Q89.7545 29.3146 88.343 27.7788Q86.9314 26.2429 84.3923 26.2429Q81.8177 26.2429 80.1576 27.8675Q78.4974 29.4922 78.4974 32.4574ZM123.401 48.9702Q119.3 48.9702 116.326 47.2479Q113.352 45.5256 111.754 42.3828Q110.156 39.2401 110.156 34.9609Q110.156 30.7528 111.754 27.5657Q113.352 24.3786 116.255 22.5941Q119.158 20.8097 123.064 20.8097Q126.42 20.8097 129.261 22.2567Q132.102 23.7038 133.815 26.7489Q135.528 29.794 135.528 34.5881L135.528 36.5589L116.53 36.5589Q116.583 40.0568 118.474 42.0099Q120.365 43.9631 123.49 43.9631Q125.567 43.9631 127.086 43.0664Q128.604 42.1697 129.261 40.4474L135.262 41.1222Q134.41 44.6733 131.294 46.8217Q128.178 48.9702 123.401 48.9702ZM116.548 32.2266L129.367 32.2266Q129.349 29.4389 127.636 27.6278Q125.923 25.8168 123.153 25.8168Q120.276 25.8168 118.483 27.7166Q116.69 29.6165 116.548 32.2266ZM146.91 48.9879Q143.003 48.9879 140.393 46.8928Q137.783 44.7976 137.783 40.7848Q137.783 37.7131 139.266 36.0174Q140.748 34.3217 143.119 33.5494Q145.489 32.777 148.135 32.4929Q151.739 32.1023 153.311 31.7649Q154.882 31.4276 154.882 30.0426L154.882 29.9361Q154.882 27.9297 153.692 26.8288Q152.503 25.728 150.265 25.728Q147.904 25.728 146.528 26.7578Q145.152 27.7876 144.672 29.1903L138.671 28.3381Q139.736 24.6094 142.835 22.7095Q145.933 20.8097 150.23 20.8097Q152.183 20.8097 154.136 21.2713Q156.089 21.733 157.714 22.7983Q159.339 23.8636 160.324 25.6747Q161.31 27.4858 161.31 30.1847L161.31 48.4375L155.131 48.4375L155.131 44.6911L154.917 44.6911Q154.047 46.4134 152.085 47.7006Q150.123 48.9879 146.91 48.9879ZM148.579 44.2649Q151.491 44.2649 153.195 42.5959Q154.9 40.9268 154.9 38.6541L154.9 35.4403Q154.491 35.7777 153.399 36.0352Q152.307 36.2926 151.082 36.4702Q149.857 36.6477 149.005 36.772Q146.856 37.0739 145.418 37.9528Q143.98 38.8317 143.98 40.6783Q143.98 42.4538 145.276 43.3594Q146.572 44.2649 148.579 44.2649ZM187.446 28.3736L181.586 29.0128Q181.214 27.6634 179.997 26.6335Q178.781 25.6037 176.562 25.6037Q174.555 25.6037 173.197 26.4737Q171.839 27.3438 171.856 28.7287Q171.839 29.9183 172.735 30.6729Q173.632 31.4276 175.709 31.8892L180.361 32.8835Q188.014 34.5526 188.032 40.2699Q188.032 42.8445 186.54 44.8065Q185.049 46.7685 182.421 47.8693Q179.793 48.9702 176.384 48.9702Q171.359 48.9702 168.323 46.8572Q165.287 44.7443 164.683 40.9979L170.951 40.3942Q171.785 44.1229 176.366 44.1229Q178.657 44.1229 180.05 43.1907Q181.444 42.2585 181.444 40.8558Q181.444 38.5653 177.769 37.7486L173.117 36.772Q169.193 35.9553 167.311 34.011Q165.429 32.0668 165.446 29.0838Q165.446 26.5625 166.831 24.707Q168.216 22.8516 170.702 21.8306Q173.188 20.8097 176.473 20.8097Q181.267 20.8097 184.028 22.8604Q186.789 24.9112 187.446 28.3736ZM203.514 48.9702Q199.413 48.9702 196.439 47.2479Q193.465 45.5256 191.867 42.3828Q190.269 39.2401 190.269 34.9609Q190.269 30.7528 191.867 27.5657Q193.465 24.3786 196.368 22.5941Q199.271 20.8097 203.177 20.8097Q206.533 20.8097 209.374 22.2567Q212.215 23.7038 213.928 26.7489Q215.642 29.794 215.642 34.5881L215.642 36.5589L196.643 36.5589Q196.696 40.0568 198.587 42.0099Q200.478 43.9631 203.603 43.9631Q205.681 43.9631 207.199 43.0664Q208.717 42.1697 209.374 40.4474L215.375 41.1222Q214.523 44.6733 211.407 46.8217Q208.291 48.9702 203.514 48.9702ZM196.661 32.2266L209.48 32.2266Q209.463 29.4389 207.749 27.6278Q206.036 25.8168 203.266 25.8168Q200.389 25.8168 198.596 27.7166Q196.803 29.6165 196.661 32.2266ZM227.041 12.0739L226.455 37.7486L220.737 37.7486L220.169 12.0739L227.041 12.0739ZM223.596 48.8281Q221.98 48.8281 220.826 47.6829Q219.672 46.5376 219.69 44.9219Q219.672 43.3239 220.826 42.1875Q221.98 41.0511 223.596 41.0511Q225.176 41.0511 226.33 42.1875Q227.485 43.3239 227.502 44.9219Q227.485 46.5376 226.33 47.6829Q225.176 48.8281 223.596 48.8281Z" transform="translate(0 121.023)" fill="#292626" />
        </g>
        <g clip-path="url(#clip_path_1)" transform="translate(53 265)">
            <rect width="269" height="58" fill="#302723" fill-rule="evenodd" fill-opacity="0.098" />
            <path d="M5.9549 29.8619Q4.62997 29.8619 3.68359 28.9228Q2.73722 27.9837 2.75178 26.6587Q2.73722 25.3484 3.68359 24.4165Q4.62997 23.4847 5.9549 23.4847Q7.25071 23.4847 8.19709 24.4165Q9.14347 25.3484 9.15803 26.6587Q9.14347 27.9837 8.19709 28.9228Q7.25071 29.8619 5.9549 29.8619ZM23.3647 29.8619Q22.0398 29.8619 21.0934 28.9228Q20.147 27.9837 20.1616 26.6587Q20.147 25.3484 21.0934 24.4165Q22.0398 23.4847 23.3647 23.4847Q24.6605 23.4847 25.6069 24.4165Q26.5533 25.3484 26.5678 26.6587Q26.5533 27.9837 25.6069 28.9228Q24.6605 29.8619 23.3647 29.8619ZM40.7745 29.8619Q39.4496 29.8619 38.5032 28.9228Q37.5568 27.9837 37.5714 26.6587Q37.5568 25.3484 38.5032 24.4165Q39.4496 23.4847 40.7745 23.4847Q42.0703 23.4847 43.0167 24.4165Q43.9631 25.3484 43.9776 26.6587Q43.9631 27.9837 43.0167 28.9228Q42.0703 29.8619 40.7745 29.8619ZM58.1843 29.8619Q56.8594 29.8619 55.913 28.9228Q54.9666 27.9837 54.9812 26.6587Q54.9666 25.3484 55.913 24.4165Q56.8594 23.4847 58.1843 23.4847Q59.4801 23.4847 60.4265 24.4165Q61.3729 25.3484 61.3874 26.6587Q61.3729 27.9837 60.4265 28.9228Q59.4801 29.8619 58.1843 29.8619ZM75.5941 29.8619Q74.2692 29.8619 73.3228 28.9228Q72.3764 27.9837 72.391 26.6587Q72.3764 25.3484 73.3228 24.4165Q74.2692 23.4847 75.5941 23.4847Q76.8899 23.4847 77.8363 24.4165Q78.7827 25.3484 78.7972 26.6587Q78.7827 27.9837 77.8363 28.9228Q76.8899 29.8619 75.5941 29.8619ZM93.0039 29.8619Q91.679 29.8619 90.7326 28.9228Q89.7862 27.9837 89.8008 26.6587Q89.7862 25.3484 90.7326 24.4165Q91.679 23.4847 93.0039 23.4847Q94.2997 23.4847 95.2461 24.4165Q96.1925 25.3484 96.207 26.6587Q96.1925 27.9837 95.2461 28.9228Q94.2997 29.8619 93.0039 29.8619ZM110.414 29.8619Q109.089 29.8619 108.142 28.9228Q107.196 27.9837 107.211 26.6587Q107.196 25.3484 108.142 24.4165Q109.089 23.4847 110.414 23.4847Q111.71 23.4847 112.656 24.4165Q113.602 25.3484 113.617 26.6587Q113.602 27.9837 112.656 28.9228Q111.71 29.8619 110.414 29.8619ZM127.824 29.8619Q126.499 29.8619 125.552 28.9228Q124.606 27.9837 124.62 26.6587Q124.606 25.3484 125.552 24.4165Q126.499 23.4847 127.824 23.4847Q129.119 23.4847 130.066 24.4165Q131.012 25.3484 131.027 26.6587Q131.012 27.9837 130.066 28.9228Q129.119 29.8619 127.824 29.8619ZM145.233 29.8619Q143.908 29.8619 142.962 28.9228Q142.016 27.9837 142.03 26.6587Q142.016 25.3484 142.962 24.4165Q143.908 23.4847 145.233 23.4847Q146.529 23.4847 147.476 24.4165Q148.422 25.3484 148.436 26.6587Q148.422 27.9837 147.476 28.9228Q146.529 29.8619 145.233 29.8619ZM162.643 29.8619Q161.318 29.8619 160.372 28.9228Q159.425 27.9837 159.44 26.6587Q159.425 25.3484 160.372 24.4165Q161.318 23.4847 162.643 23.4847Q163.939 23.4847 164.885 24.4165Q165.832 25.3484 165.846 26.6587Q165.832 27.9837 164.885 28.9228Q163.939 29.8619 162.643 29.8619ZM180.053 29.8619Q178.728 29.8619 177.782 28.9228Q176.835 27.9837 176.85 26.6587Q176.835 25.3484 177.782 24.4165Q178.728 23.4847 180.053 23.4847Q181.349 23.4847 182.295 24.4165Q183.242 25.3484 183.256 26.6587Q183.242 27.9837 182.295 28.9228Q181.349 29.8619 180.053 29.8619ZM197.463 29.8619Q196.138 29.8619 195.191 28.9228Q194.245 27.9837 194.26 26.6587Q194.245 25.3484 195.191 24.4165Q196.138 23.4847 197.463 23.4847Q198.759 23.4847 199.705 24.4165Q200.651 25.3484 200.666 26.6587Q200.651 27.9837 199.705 28.9228Q198.759 29.8619 197.463 29.8619ZM214.873 29.8619Q213.548 29.8619 212.601 28.9228Q211.655 27.9837 211.669 26.6587Q211.655 25.3484 212.601 24.4165Q213.548 23.4847 214.873 23.4847Q216.168 23.4847 217.115 24.4165Q218.061 25.3484 218.076 26.6587Q218.061 27.9837 217.115 28.9228Q216.168 29.8619 214.873 29.8619Z" fill="#000000" transform="translate(21 4)" />
        </g>
        <path id="Vector" d="M0 83.1306L0 0L60.4666 52.5L23.9666 52.5L0 83.1306Z" fill="#292626" fill-rule="evenodd" transform="matrix(1 0 -0 1 449 323)" />
        <g clip-path="url(#clip_path_2)" transform="translate(333 265)">
            <rect width="105" height="49" fill="#2141C1" fill-rule="evenodd" />
            <path d="M18.7447 13.1452L15.1587 13.1452Q14.8519 11.381 13.5671 10.4126Q12.2823 9.44425 10.4893 9.44425Q8.08274 9.44425 6.54865 11.2276Q5.01456 13.011 5.01456 16.3381Q5.01456 19.7131 6.55344 21.4725Q8.09233 23.2319 10.4798 23.2319Q12.244 23.2319 13.5336 22.2971Q14.8232 21.3622 15.1587 19.6364L18.7447 19.6555Q18.4762 21.5348 17.3928 23.0689Q16.3093 24.603 14.5403 25.5138Q12.7713 26.4247 10.4318 26.4247Q7.84304 26.4247 5.81037 25.2214Q3.7777 24.0181 2.60795 21.7601Q1.43821 19.5021 1.43821 16.3381Q1.43821 13.1644 2.61754 10.9064Q3.79688 8.64844 5.83434 7.44993Q7.8718 6.25142 10.4318 6.25142Q12.6083 6.25142 14.3773 7.06641Q16.1463 7.88139 17.2969 9.42028Q18.4474 10.9592 18.7447 13.1452ZM28.2848 26.4439Q26.1275 26.4439 24.5455 25.4947Q22.9634 24.5455 22.0957 22.834Q21.228 21.1225 21.228 18.8501Q21.228 16.5682 22.0957 14.8567Q22.9634 13.1452 24.5455 12.1912Q26.1275 11.2372 28.2848 11.2372Q30.4421 11.2372 32.0289 12.1912Q33.6158 13.1452 34.4787 14.8567Q35.3416 16.5682 35.3416 18.8501Q35.3416 21.1225 34.4787 22.834Q33.6158 24.5455 32.0289 25.4947Q30.4421 26.4439 28.2848 26.4439ZM28.304 23.6634Q29.4833 23.6634 30.2647 23.021Q31.0462 22.3786 31.4345 21.2807Q31.8228 20.1829 31.8228 18.8406Q31.8228 17.4886 31.4345 16.3908Q31.0462 15.293 30.2647 14.641Q29.4833 13.989 28.304 13.989Q27.1151 13.989 26.324 14.641Q25.533 15.293 25.1399 16.3908Q24.7468 17.4886 24.7468 18.8406Q24.7468 20.1829 25.1399 21.2807Q25.533 22.3786 26.324 23.021Q27.1151 23.6634 28.304 23.6634ZM38.2756 31.679L38.2756 11.429L41.6889 11.429L41.6889 13.8643L41.8903 13.8643Q42.1587 13.3274 42.6429 12.7186Q43.1271 12.1097 43.9661 11.6735Q44.805 11.2372 46.0994 11.2372Q47.8061 11.2372 49.182 12.1097Q50.5579 12.9822 51.3681 14.6697Q52.1783 16.3572 52.1783 18.8118Q52.1783 21.2376 51.3825 22.9347Q50.5866 24.6317 49.2156 25.5234Q47.8445 26.4151 46.109 26.4151Q44.8434 26.4151 44.0092 25.9933Q43.1751 25.5714 42.6717 24.9721Q42.1683 24.3729 41.8903 23.8359L41.7464 23.8359L41.7464 31.679L38.2756 31.679ZM41.6793 18.7926Q41.6793 20.9308 42.5806 22.2491Q43.4819 23.5675 45.1406 23.5675Q46.8569 23.5675 47.7486 22.2156Q48.6403 20.8636 48.6403 18.7926Q48.6403 16.7312 47.7582 15.408Q46.8761 14.0849 45.1406 14.0849Q43.4627 14.0849 42.571 15.3649Q41.6793 16.6449 41.6793 18.7926ZM56.7901 31.679Q56.0806 31.679 55.4814 31.5687Q54.8821 31.4585 54.5273 31.3146L55.3327 28.6108Q56.4737 28.9368 57.2504 28.7259Q58.027 28.5149 58.5064 27.2589L58.8036 26.4631L53.4631 11.429L57.1449 11.429L60.5391 22.5511L60.6925 22.5511L64.0962 11.429L67.7876 11.429L61.891 27.9396Q61.2678 29.7038 60.0453 30.6914Q58.8228 31.679 56.7901 31.679Z" fill="#FFF4E6" transform="translate(18 8)" />
        </g>
        <path id="Shape" d="M0 155L137 155L137 68.8888L0 68.8888L0 155ZM119.875 68.8889L119.875 51.6667C119.875 37.3993 114.859 25.2214 104.828 15.1328C94.796 5.04427 82.6868 0 68.5 0C54.3132 0 42.204 5.04427 32.1724 15.1328C22.1408 25.2214 17.125 37.3993 17.125 51.6667L17.125 68.8889L34.25 68.8889L34.25 51.6667C34.25 42.1551 37.5939 34.0365 44.2816 27.3108C50.9693 20.5851 59.0421 17.2222 68.5 17.2222C77.9579 17.2222 86.0307 20.5851 92.7184 27.3108C99.4061 34.0365 102.75 42.1551 102.75 51.6667L102.75 68.8889L119.875 68.8889Z" fill="#292626" fill-rule="evenodd" transform="translate(352 61)" />
        <path id="Shape" d="M0 155L137 155L137 68.8888L0 68.8888L0 155ZM119.875 68.8889L119.875 51.6667C119.875 37.3993 114.859 25.2214 104.828 15.1328C94.796 5.04427 82.6868 0 68.5 0C54.3132 0 42.204 5.04427 32.1724 15.1328C22.1408 25.2214 17.125 37.3993 17.125 51.6667L17.125 68.8889L34.25 68.8889L34.25 51.6667C34.25 42.1551 37.5939 34.0365 44.2816 27.3108C50.9693 20.5851 59.0421 17.2222 68.5 17.2222C77.9579 17.2222 86.0307 20.5851 92.7184 27.3108C99.4061 34.0365 102.75 42.1551 102.75 51.6667L102.75 68.8889L119.875 68.8889Z" fill="#FFDB5B" fill-rule="evenodd" transform="translate(342 52)" />
    </g>
</svg>