<?xml version="1.0" encoding="utf-8"?>
<svg viewBox="0 0 400 300" fill="none" xmlns="http://www.w3.org/2000/svg">
    <defs>
        <filter color-interpolation-filters="sRGB" x="-312" y="-219" width="314" height="221" id="filter_1">
            <feFlood flood-opacity="0" result="BackgroundImageFix_1" />
            <feBlend mode="normal" in="SourceGraphic" in2="BackgroundImageFix_1" result="Shape_2" />
            <feGaussianBlur stdDeviation="100" />
        </filter>
    </defs>
    <g>
        <rect width="400" height="300" fill="#121212" fill-rule="evenodd" />
        <path d="M0 110.5C0 49.4725 70.2913 0 157 0C243.709 0 314 49.4725 314 110.5C314 171.527 243.709 221 157 221C70.2913 221 0 171.527 0 110.5Z" fill="#2A3A22" fill-rule="evenodd" filter="url(#filter_1)" transform="translate(56 51)" />
        <g transform="translate(35 17)">
            <path d="M89 0C39.8706 0 0 39.9266 0 89.125C0 138.323 39.8706 178.25 89 178.25C138.129 178.25 178 138.323 178 89.125C178 39.9266 138.129 0 89 0Z" fill="#1ED760" transform="translate(0 2.875)" />
            <path d="M118.427 33.6734C116.561 33.6734 115.413 33.2062 113.798 32.2719C88.2464 16.9984 42.5621 13.3328 12.9911 21.5984C11.6992 21.9578 10.0843 22.5328 8.36169 22.5328C3.6246 22.5328 0 18.8313 0 14.0516C0 9.16405 3.01452 6.39687 6.24436 5.4625C18.8766 1.76094 33.0161 0 48.4117 0C74.6093 0 102.063 5.4625 122.124 17.1781C124.923 18.7953 126.753 21.0234 126.753 25.3C126.753 30.1875 122.806 33.6734 118.427 33.6734C118.427 33.6734 118.427 33.6734 118.427 33.6734ZM107.302 61.0578C105.436 61.0578 104.18 60.2312 102.888 59.5484C80.4589 46.2515 47.0121 40.8969 17.2617 48.9828C15.5391 49.45 14.606 49.9172 12.9911 49.9172C9.1512 49.9172 6.02902 46.7906 6.02902 42.9453C6.02902 39.1 7.89514 36.5484 11.5915 35.5062C21.5681 32.7031 31.7601 30.6187 46.6891 30.6187C69.9798 30.6187 92.481 36.4047 110.209 46.9703C113.116 48.6953 114.264 50.9234 114.264 54.05C114.229 57.9312 111.214 61.0578 107.302 61.0578C107.302 61.0578 107.302 61.0578 107.302 61.0578ZM97.6488 84.6328C96.1415 84.6328 95.2085 84.1656 93.8089 83.3391C71.4153 69.8265 45.3613 69.2515 19.6302 74.5344C18.2306 74.8937 16.4004 75.4687 15.3597 75.4687C11.8786 75.4687 9.68951 72.7015 9.68951 69.7906C9.68951 66.0891 11.8786 64.3281 14.5702 63.7531C43.9617 57.2484 73.9992 57.8234 99.6226 73.1687C101.812 74.5703 103.104 75.8281 103.104 79.0984C103.104 82.3687 100.556 84.6328 97.6488 84.6328C97.6488 84.6328 97.6488 84.6328 97.6488 84.6328Z" fill="#000000" transform="translate(27.49 49.378)" />
        </g>
        <path d="M15.9209 0L15.9209 70.5166L0 70.5166L26.7523 91L54 70.5166L38.8383 70.5166L38.8383 0L15.9209 0Z" fill="#FFFFFF" fill-rule="evenodd" transform="translate(283 51)" />
        <rect width="83" height="13" fill="#FFFFFF" fill-rule="evenodd" transform="translate(269 148)" />
        <path d="M11.7703 35.8438L2.65576 35.8438L2.65576 8.93384L11.96 8.93384Q15.9617 8.93384 18.8433 10.5417Q21.7339 12.1497 23.2786 15.1667Q24.8323 18.1748 24.8323 22.3662Q24.8323 26.5667 23.2695 29.5928Q21.7158 32.6099 18.7891 34.2268Q15.8713 35.8438 11.7703 35.8438ZM7.52466 31.6252L11.5354 31.6252Q19.9995 31.6252 19.9995 22.3662Q19.9995 13.1523 11.6799 13.1523L7.52466 13.1523L7.52466 31.6252ZM35.7503 36.2412Q32.7965 36.2412 30.6285 34.9404Q28.4605 33.6396 27.2681 31.291Q26.0848 28.9424 26.0848 25.835Q26.0848 22.7004 27.2681 20.3608Q28.4605 18.0122 30.6285 16.7114Q32.7965 15.4016 35.7503 15.4016Q38.7042 15.4016 40.8812 16.7114Q43.0582 18.0122 44.2415 20.3608Q45.4249 22.7004 45.4249 25.835Q45.4249 28.9424 44.2415 31.291Q43.0582 33.6396 40.8812 34.9404Q38.7042 36.2412 35.7503 36.2412ZM35.7774 32.4292Q37.3944 32.4292 38.4603 31.553Q39.5352 30.6677 40.0682 29.1682Q40.6011 27.6597 40.6011 25.8169Q40.6011 23.9651 40.0682 22.4656Q39.5352 20.957 38.4603 20.0627Q37.3944 19.1685 35.7774 19.1685Q34.1514 19.1685 33.0675 20.0627Q31.9835 20.957 31.4415 22.4656Q30.8995 23.9651 30.8995 25.8169Q30.8995 27.6597 31.4415 29.1682Q31.9835 30.6677 33.0675 31.553Q34.1514 32.4292 35.7774 32.4292ZM50.7588 35.8438L45.0498 15.6636L49.9006 15.6636L53.4506 29.8547L53.6313 29.8547L57.2627 15.6636L62.0593 15.6636L65.6816 29.7734L65.8803 29.7734L69.3762 15.6636L74.236 15.6636L68.518 35.8438L63.5678 35.8438L59.7829 22.2036L59.5029 22.2036L55.718 35.8438L50.7588 35.8438ZM80.0282 24.0193L80.0282 35.8438L75.2767 35.8438L75.2767 15.6636L79.8204 15.6636L79.8204 19.0872L80.0553 19.0872Q80.7508 17.407 82.2774 16.4043Q83.8131 15.4016 86.0714 15.4016Q89.1969 15.4016 91.0938 17.3889Q92.9998 19.3672 92.9818 22.9895L92.9818 35.8438L88.2303 35.8438L88.2303 23.7302Q88.2303 21.7068 87.1824 20.5686Q86.1346 19.4214 84.3009 19.4214Q82.422 19.4214 81.2205 20.6228Q80.0282 21.8242 80.0282 24.0193ZM100.288 8.93384L100.288 35.8438L95.5367 35.8438L95.5367 8.93384L100.288 8.93384ZM111.679 36.2412Q108.725 36.2412 106.557 34.9404Q104.389 33.6396 103.197 31.291Q102.014 28.9424 102.014 25.835Q102.014 22.7004 103.197 20.3608Q104.389 18.0122 106.557 16.7114Q108.725 15.4016 111.679 15.4016Q114.633 15.4016 116.81 16.7114Q118.987 18.0122 120.17 20.3608Q121.354 22.7004 121.354 25.835Q121.354 28.9424 120.17 31.291Q118.987 33.6396 116.81 34.9404Q114.633 36.2412 111.679 36.2412ZM111.706 32.4292Q113.323 32.4292 114.389 31.553Q115.464 30.6677 115.997 29.1682Q116.53 27.6597 116.53 25.8169Q116.53 23.9651 115.997 22.4656Q115.464 20.957 114.389 20.0627Q113.323 19.1685 111.706 19.1685Q110.08 19.1685 108.996 20.0627Q107.912 20.957 107.37 22.4656Q106.828 23.9651 106.828 25.8169Q106.828 27.6597 107.37 29.1682Q107.912 30.6677 108.996 31.553Q110.08 32.4292 111.706 32.4292ZM128.875 36.2502Q125.984 36.2502 124.051 34.7056Q122.127 33.1519 122.127 30.1799Q122.127 27.9036 123.22 26.657Q124.322 25.4014 126.074 24.8323Q127.827 24.2542 129.787 24.0464Q132.452 23.7573 133.617 23.5134Q134.782 23.2605 134.782 22.2307L134.782 22.1494Q134.782 20.668 133.897 19.855Q133.021 19.042 131.359 19.042Q129.615 19.042 128.594 19.8008Q127.574 20.5596 127.221 21.5984L122.786 20.9661Q123.572 18.2109 125.857 16.8108Q128.152 15.4016 131.332 15.4016Q132.777 15.4016 134.222 15.7449Q135.667 16.0791 136.869 16.874Q138.079 17.6599 138.802 19.0059Q139.534 20.3428 139.534 22.3391L139.534 35.8438L134.963 35.8438L134.963 33.0706L134.8 33.0706Q134.159 34.3442 132.705 35.3018Q131.259 36.2502 128.875 36.2502ZM130.112 32.7544Q132.271 32.7544 133.527 31.5259Q134.791 30.2883 134.791 28.6082L134.791 26.2234Q134.493 26.4763 133.68 26.666Q132.876 26.8557 131.964 26.9912Q131.061 27.1177 130.428 27.208Q128.838 27.4338 127.772 28.0842Q126.707 28.7346 126.707 30.0986Q126.707 31.4175 127.664 32.0859Q128.631 32.7544 130.112 32.7544ZM149.523 36.196Q147.138 36.196 145.259 34.9766Q143.38 33.7571 142.287 31.4355Q141.203 29.105 141.203 25.7808Q141.203 22.4114 142.314 20.0989Q143.426 17.7864 145.313 16.594Q147.21 15.4016 149.532 15.4016Q151.321 15.4016 152.459 15.9978Q153.597 16.594 154.265 17.4341Q154.943 18.2651 155.304 18.9968L155.494 18.9968L155.494 8.93384L160.263 8.93384L160.263 35.8438L155.593 35.8438L155.593 32.6641L155.304 32.6641Q154.934 33.3958 154.238 34.2178Q153.543 35.0398 152.396 35.6179Q151.257 36.196 149.523 36.196ZM150.851 32.2937Q153.118 32.2937 154.356 30.4871Q155.593 28.6804 155.593 25.7537Q155.593 22.8088 154.365 21.0564Q153.145 19.304 150.851 19.304Q148.466 19.304 147.256 21.1196Q146.054 22.9263 146.054 25.7537Q146.054 28.5901 147.274 30.4419Q148.493 32.2937 150.851 32.2937ZM170.149 35.8438L170.149 8.93384L180.239 8.93384Q183.337 8.93384 185.442 10.0901Q187.556 11.2463 188.64 13.2607Q189.724 15.2661 189.724 17.8406Q189.724 20.4331 188.631 22.4475Q187.547 24.4529 185.415 25.6001Q183.283 26.7473 180.175 26.7473L175.017 26.7473L175.017 35.8438L170.149 35.8438ZM175.017 22.7456L179.516 22.7456Q182.235 22.7456 183.491 21.3635Q184.755 19.9814 184.755 17.8406Q184.755 15.6907 183.491 14.3538Q182.235 13.0078 179.489 13.0078L175.017 13.0078L175.017 22.7456ZM196.201 8.93384L196.201 35.8438L191.449 35.8438L191.449 8.93384L196.201 8.93384ZM204.593 36.2502Q201.702 36.2502 199.769 34.7056Q197.845 33.1519 197.845 30.1799Q197.845 27.9036 198.938 26.657Q200.04 25.4014 201.792 24.8323Q203.545 24.2542 205.505 24.0464Q208.17 23.7573 209.335 23.5134Q210.5 23.2605 210.5 22.2307L210.5 22.1494Q210.5 20.668 209.615 19.855Q208.739 19.042 207.077 19.042Q205.333 19.042 204.313 19.8008Q203.292 20.5596 202.939 21.5984L198.504 20.9661Q199.29 18.2109 201.575 16.8108Q203.87 15.4016 207.05 15.4016Q208.495 15.4016 209.94 15.7449Q211.386 16.0791 212.587 16.874Q213.797 17.6599 214.52 19.0059Q215.252 20.3428 215.252 22.3391L215.252 35.8438L210.681 35.8438L210.681 33.0706L210.518 33.0706Q209.877 34.3442 208.423 35.3018Q206.977 36.2502 204.593 36.2502ZM205.83 32.7544Q207.989 32.7544 209.245 31.5259Q210.509 30.2883 210.509 28.6082L210.509 26.2234Q210.211 26.4763 209.398 26.666Q208.594 26.8557 207.682 26.9912Q206.779 27.1177 206.146 27.208Q204.556 27.4338 203.491 28.0842Q202.425 28.7346 202.425 30.0986Q202.425 31.4175 203.382 32.0859Q204.349 32.7544 205.83 32.7544ZM219.971 43.4136Q218.995 43.4136 218.173 43.26Q217.351 43.1064 216.872 42.9167L217.974 39.2041Q219.537 39.6558 220.594 39.3667Q221.66 39.0776 222.319 37.3523L222.726 36.2683L215.409 15.6636L220.458 15.6636L225.11 30.9026L225.318 30.9026L229.979 15.6636L235.038 15.6636L226.962 38.2917Q226.104 40.7036 224.424 42.0586Q222.753 43.4136 219.971 43.4136ZM240.78 8.93384L240.78 35.8438L236.028 35.8438L236.028 8.93384L240.78 8.93384ZM243.373 35.8438L243.373 15.6636L248.124 15.6636L248.124 35.8438L243.373 35.8438ZM245.757 12.8Q244.619 12.8 243.806 12.0413Q243.002 11.2825 243.002 10.2256Q243.002 9.1416 243.806 8.39185Q244.619 7.63306 245.757 7.63306Q246.887 7.63306 247.691 8.39185Q248.504 9.1416 248.504 10.2256Q248.504 11.2825 247.691 12.0413Q246.887 12.8 245.757 12.8ZM266.66 20.9932L262.324 21.4719Q262.053 20.4692 261.15 19.7104Q260.256 18.9426 258.612 18.9426Q257.121 18.9426 256.119 19.593Q255.116 20.2344 255.125 21.2551Q255.116 22.1404 255.775 22.7004Q256.444 23.2605 257.98 23.5947L261.421 24.3354Q267.085 25.573 267.094 29.8005Q267.094 31.7065 265.992 33.1609Q264.89 34.6062 262.939 35.4282Q260.997 36.2412 258.476 36.2412Q254.764 36.2412 252.514 34.6785Q250.265 33.1067 249.823 30.3425L254.457 29.8909Q255.071 32.655 258.467 32.655Q260.157 32.655 261.186 31.9685Q262.225 31.2729 262.225 30.2341Q262.225 28.5359 259.506 27.9307L256.064 27.208Q253.156 26.6028 251.765 25.1665Q250.374 23.7302 250.383 21.5261Q250.383 19.6562 251.403 18.2832Q252.433 16.9102 254.267 16.1604Q256.11 15.4016 258.54 15.4016Q262.09 15.4016 264.131 16.9192Q266.182 18.4368 266.66 20.9932ZM278.802 15.6636L278.802 19.3401L274.818 19.3401L274.818 29.7734Q274.818 31.2097 275.451 31.6614Q276.083 32.113 276.977 32.113Q277.42 32.113 277.79 32.0498Q278.17 31.9775 278.368 31.9324L279.172 35.645Q278.793 35.7805 278.088 35.9341Q277.384 36.0967 276.372 36.1238Q273.689 36.196 271.865 34.8049Q270.049 33.4138 270.067 30.5593L270.067 19.3401L267.203 19.3401L267.203 15.6636L270.067 15.6636L270.067 10.8308L274.818 10.8308L274.818 15.6636L278.802 15.6636Z" fill="#1ED760" transform="translate(56 217)" />
    </g>
</svg>