<svg xmlns="http://www.w3.org/2000/svg" viewBox="0 0 1 1" width="4000" height="3000" preserveAspectRatio="none">
    <path d="M0 1C0 -0.2197681594538614 -0.2197681594538614 0 1 0V1Z" style="fill: hsl(720deg 100% 50%)"/>
    <path d="M0 1C0 -0.2197681594538614 -0.2197681594538614 0 1 0V1Z" style="fill: hsl(712.8deg 100% 50%)"/>
    <path d="M0 1C0 -0.2197681594538614 -0.2197681594538614 0 1 0V1Z" style="fill: hsl(705.6deg 100% 50%)"/>
    <path d="M0 1C0 -0.2197681594538614 -0.2197681594538614 0 1 0V1Z" style="fill: hsl(698.4deg 100% 50%)"/>
    <path d="M0 1C0 -0.2197681594538614 -0.2197681594538614 0 1 0V1Z" style="fill: hsl(691.1999999999999deg 100% 50%)"/>
    <path d="M0 1C0 -0.2197681594538614 -0.2197681594538614 0 1 0V1Z" style="fill: hsl(684deg 100% 50%)"/>
    <path d="M0 1C0 -0.2197681594538614 -0.2197681594538614 0 1 0V1Z" style="fill: hsl(676.8deg 100% 50%)"/>
    <path d="M0 1C0 -0.2108770347044926 -0.2108770347044926 0 1 0V1Z" style="fill: hsl(669.6deg 100% 50%)"/>
    <path d="M0 1C0 -0.21080698995985836 -0.21080698995985836 0 1 0V1Z" style="fill: hsl(662.4deg 100% 50%)"/>
    <path d="M0 1C0 -0.21053064039247715 -0.21053064039247715 0 1 0V1Z" style="fill: hsl(655.2deg 100% 50%)"/>
    <path d="M0 1C0 -0.20962360066894226 -0.20962360066894226 0 1 0V1Z" style="fill: hsl(648deg 100% 50%)"/>
    <path d="M0 1C0 -0.20863728232535328 -0.20863728232535328 0 1 0V1Z" style="fill: hsl(640.8deg 100% 50%)"/>
    <path d="M0 1C0 -0.20837211939495637 -0.20837211939495637 0 1 0V1Z" style="fill: hsl(633.6deg 100% 50%)"/>
    <path d="M0 1C0 -0.20761758300261768 -0.20761758300261768 0 1 0V1Z" style="fill: hsl(626.4deg 100% 50%)"/>
    <path d="M0 1C0 -0.20654329053518827 -0.20654329053518827 0 1 0V1Z" style="fill: hsl(619.2deg 100% 50%)"/>
    <path d="M0 1C0 -0.20625675319985093 -0.20625675319985093 0 1 0V1Z" style="fill: hsl(612deg 100% 50%)"/>
    <path d="M0 1C0 -0.20625675319985093 -0.20625675319985093 0 1 0V1Z" style="fill: hsl(604.8deg 100% 50%)"/>
    <path d="M0 1C0 -0.20466563577329877 -0.20466563577329877 0 1 0V1Z" style="fill: hsl(597.6deg 100% 50%)"/>
    <path d="M0 1C0 -0.20445168627027854 -0.20445168627027854 0 1 0V1Z" style="fill: hsl(590.4deg 100% 50%)"/>
    <path d="M0 1C0 -0.20445168627027854 -0.20445168627027854 0 1 0V1Z" style="fill: hsl(583.2deg 100% 50%)"/>
    <path d="M0 1C0 -0.2028962216614434 -0.2028962216614434 0 1 0V1Z" style="fill: hsl(576deg 100% 50%)"/>
    <path d="M0 1C0 -0.19970674605730476 -0.19970674605730476 0 1 0V1Z" style="fill: hsl(568.8000000000001deg 100% 50%)"/>
    <path d="M0 1C0 -0.19970674605730476 -0.19970674605730476 0 1 0V1Z" style="fill: hsl(561.6deg 100% 50%)"/>
    <path d="M0 1C0 -0.19970674605730476 -0.19970674605730476 0 1 0V1Z" style="fill: hsl(554.4deg 100% 50%)"/>
    <path d="M0 1C0 -0.19970633004932203 -0.19970633004932203 0 1 0V1Z" style="fill: hsl(547.2deg 100% 50%)"/>
    <path d="M0 1C0 -0.19970633004932203 -0.19970633004932203 0 1 0V1Z" style="fill: hsl(540deg 100% 50%)"/>
    <path d="M0 1C0 -0.19970633004932203 -0.19970633004932203 0 1 0V1Z" style="fill: hsl(532.8deg 100% 50%)"/>
    <path d="M0 1C0 -0.19970633004932203 -0.19970633004932203 0 1 0V1Z" style="fill: hsl(525.6deg 100% 50%)"/>
    <path d="M0 1C0 -0.19970633004932203 -0.19970633004932203 0 1 0V1Z" style="fill: hsl(518.4deg 100% 50%)"/>
    <path d="M0 1C0 -0.19970633004932203 -0.19970633004932203 0 1 0V1Z" style="fill: hsl(511.2deg 100% 50%)"/>
    <path d="M0 1C0 -0.19272096768063607 -0.19272096768063607 0 1 0V1Z" style="fill: hsl(503.99999999999994deg 100% 50%)"/>
    <path d="M0 1C0 -0.1916813404525306 -0.1916813404525306 0 1 0V1Z" style="fill: hsl(496.79999999999995deg 100% 50%)"/>
    <path d="M0 1C0 -0.1902385071588184 -0.1902385071588184 0 1 0V1Z" style="fill: hsl(489.6deg 100% 50%)"/>
    <path d="M0 1C0 -0.189092222586968 -0.189092222586968 0 1 0V1Z" style="fill: hsl(482.40000000000003deg 100% 50%)"/>
    <path d="M0 1C0 -0.1877671720921592 -0.1877671720921592 0 1 0V1Z" style="fill: hsl(475.20000000000005deg 100% 50%)"/>
    <path d="M0 1C0 -0.18639734804052477 -0.18639734804052477 0 1 0V1Z" style="fill: hsl(468deg 100% 50%)"/>
    <path d="M0 1C0 -0.18491469262192828 -0.18491469262192828 0 1 0V1Z" style="fill: hsl(460.8deg 100% 50%)"/>
    <path d="M0 1C0 -0.18491162451654297 -0.18491162451654297 0 1 0V1Z" style="fill: hsl(453.6deg 100% 50%)"/>
    <path d="M0 1C0 -0.18198378530331683 -0.18198378530331683 0 1 0V1Z" style="fill: hsl(446.4deg 100% 50%)"/>
    <path d="M0 1C0 -0.1819287216457801 -0.1819287216457801 0 1 0V1Z" style="fill: hsl(439.2deg 100% 50%)"/>
    <path d="M0 1C0 -0.17905405195997748 -0.17905405195997748 0 1 0V1Z" style="fill: hsl(432deg 100% 50%)"/>
    <path d="M0 1C0 -0.17738606091914866 -0.17738606091914866 0 1 0V1Z" style="fill: hsl(424.79999999999995deg 100% 50%)"/>
    <path d="M0 1C0 -0.17632738562953332 -0.17632738562953332 0 1 0V1Z" style="fill: hsl(417.59999999999997deg 100% 50%)"/>
    <path d="M0 1C0 -0.17429393473465837 -0.17429393473465837 0 1 0V1Z" style="fill: hsl(410.4deg 100% 50%)"/>
    <path d="M0 1C0 -0.17245793298264545 -0.17245793298264545 0 1 0V1Z" style="fill: hsl(403.20000000000005deg 100% 50%)"/>
    <path d="M0 1C0 -0.16865054384259048 -0.16865054384259048 0 1 0V1Z" style="fill: hsl(396.00000000000006deg 100% 50%)"/>
    <path d="M0 1C0 -0.1680912433859949 -0.1680912433859949 0 1 0V1Z" style="fill: hsl(388.8deg 100% 50%)"/>
    <path d="M0 1C0 -0.16606413670588127 -0.16606413670588127 0 1 0V1Z" style="fill: hsl(381.6deg 100% 50%)"/>
    <path d="M0 1C0 -0.16334551358317206 -0.16334551358317206 0 1 0V1Z" style="fill: hsl(374.40000000000003deg 100% 50%)"/>
    <path d="M0 1C0 -0.16265323043302748 -0.16265323043302748 0 1 0V1Z" style="fill: hsl(367.2deg 100% 50%)"/>
    <path d="M0 1C0 -0.16265323043302748 -0.16265323043302748 0 1 0V1Z" style="fill: hsl(360deg 100% 50%)"/>
    <path d="M0 1C0 -0.1563603147290653 -0.1563603147290653 0 1 0V1Z" style="fill: hsl(352.8deg 100% 50%)"/>
    <path d="M0 1C0 -0.15329618381516674 -0.15329618381516674 0 1 0V1Z" style="fill: hsl(345.59999999999997deg 100% 50%)"/>
    <path d="M0 1C0 -0.15126917406602924 -0.15126917406602924 0 1 0V1Z" style="fill: hsl(338.4deg 100% 50%)"/>
    <path d="M0 1C0 -0.14709663462056488 -0.14709663462056488 0 1 0V1Z" style="fill: hsl(331.2deg 100% 50%)"/>
    <path d="M0 1C0 -0.1466542708048686 -0.1466542708048686 0 1 0V1Z" style="fill: hsl(324deg 100% 50%)"/>
    <path d="M0 1C0 -0.14359047311001616 -0.14359047311001616 0 1 0V1Z" style="fill: hsl(316.8deg 100% 50%)"/>
    <path d="M0 1C0 -0.1404571024585577 -0.1404571024585577 0 1 0V1Z" style="fill: hsl(309.6deg 100% 50%)"/>
    <path d="M0 1C0 -0.13612809376505242 -0.13612809376505242 0 1 0V1Z" style="fill: hsl(302.4deg 100% 50%)"/>
    <path d="M0 1C0 -0.1323783941591543 -0.1323783941591543 0 1 0V1Z" style="fill: hsl(295.2deg 100% 50%)"/>
    <path d="M0 1C0 -0.13018135356555716 -0.13018135356555716 0 1 0V1Z" style="fill: hsl(288deg 100% 50%)"/>
    <path d="M0 1C0 -0.12467627450743812 -0.12467627450743812 0 1 0V1Z" style="fill: hsl(280.8deg 100% 50%)"/>
    <path d="M0 1C0 -0.1237055429942906 -0.1237055429942906 0 1 0V1Z" style="fill: hsl(273.6deg 100% 50%)"/>
    <path d="M0 1C0 -0.11871162113407108 -0.11871162113407108 0 1 0V1Z" style="fill: hsl(266.4deg 100% 50%)"/>
    <path d="M0 1C0 -0.11456132847233391 -0.11456132847233391 0 1 0V1Z" style="fill: hsl(259.2deg 100% 50%)"/>
    <path d="M0 1C0 -0.10869673652265543 -0.10869673652265543 0 1 0V1Z" style="fill: hsl(251.99999999999997deg 100% 50%)"/>
    <path d="M0 1C0 -0.10597796196411058 -0.10597796196411058 0 1 0V1Z" style="fill: hsl(244.8deg 100% 50%)"/>
    <path d="M0 1C0 -0.10024516792915339 -0.10024516792915339 0 1 0V1Z" style="fill: hsl(237.60000000000002deg 100% 50%)"/>
    <path d="M0 1C0 -0.09489702735673111 -0.09489702735673111 0 1 0V1Z" style="fill: hsl(230.4deg 100% 50%)"/>
    <path d="M0 1C0 -0.08860198457306945 -0.08860198457306945 0 1 0V1Z" style="fill: hsl(223.2deg 100% 50%)"/>
    <path d="M0 1C0 -0.08236161772303885 -0.08236161772303885 0 1 0V1Z" style="fill: hsl(216deg 100% 50%)"/>
    <path d="M0 1C0 -0.0752681245021467 -0.0752681245021467 0 1 0V1Z" style="fill: hsl(208.79999999999998deg 100% 50%)"/>
    <path d="M0 1C0 -0.06910755667620316 -0.06910755667620316 0 1 0V1Z" style="fill: hsl(201.60000000000002deg 100% 50%)"/>
    <path d="M0 1C0 -0.06161248901096594 -0.06161248901096594 0 1 0V1Z" style="fill: hsl(194.4deg 100% 50%)"/>
    <path d="M0 1C0 -0.054953684578122886 -0.054953684578122886 0 1 0V1Z" style="fill: hsl(187.20000000000002deg 100% 50%)"/>
    <path d="M0 1C0 -0.04658430125877544 -0.04658430125877544 0 1 0V1Z" style="fill: hsl(180deg 100% 50%)"/>
    <path d="M0 1C0 -0.039461670414580485 -0.039461670414580485 0 1 0V1Z" style="fill: hsl(172.79999999999998deg 100% 50%)"/>
    <path d="M0 1C0 -0.02907073837851426 -0.02907073837851426 0 1 0V1Z" style="fill: hsl(165.6deg 100% 50%)"/>
    <path d="M0 1C0 -0.01992690077690673 -0.01992690077690673 0 1 0V1Z" style="fill: hsl(158.4deg 100% 50%)"/>
    <path d="M0 1C0 -0.007850646111996706 -0.007850646111996706 0 1 0V1Z" style="fill: hsl(151.2deg 100% 50%)"/>
    <path d="M0 1C0 0.0036316112344332296 0.0036316112344332296 0 1 0V1Z" style="fill: hsl(144deg 100% 50%)"/>
    <path d="M0 1C0 0.01613887543688486 0.01613887543688486 0 1 0V1Z" style="fill: hsl(136.8deg 100% 50%)"/>
    <path d="M0 1C0 0.030814076295486603 0.030814076295486603 0 1 0V1Z" style="fill: hsl(129.6deg 100% 50%)"/>
    <path d="M0 1C0 0.046005626198590055 0.046005626198590055 0 1 0V1Z" style="fill: hsl(122.4deg 100% 50%)"/>
    <path d="M0 1C0 0.06332417322584316 0.06332417322584316 0 1 0V1Z" style="fill: hsl(115.2deg 100% 50%)"/>
    <path d="M0 1C0 0.08182231175541599 0.08182231175541599 0 1 0V1Z" style="fill: hsl(108deg 100% 50%)"/>
    <path d="M0 1C0 0.09885804184876879 0.09885804184876879 0 1 0V1Z" style="fill: hsl(100.80000000000001deg 100% 50%)"/>
    <path d="M0 1C0 0.1249884242017808 0.1249884242017808 0 1 0V1Z" style="fill: hsl(93.60000000000001deg 100% 50%)"/>
    <path d="M0 1C0 0.150183752804958 0.150183752804958 0 1 0V1Z" style="fill: hsl(86.39999999999999deg 100% 50%)"/>
    <path d="M0 1C0 0.17748370113172585 0.17748370113172585 0 1 0V1Z" style="fill: hsl(79.2deg 100% 50%)"/>
    <path d="M0 1C0 0.20988275928058808 0.20988275928058808 0 1 0V1Z" style="fill: hsl(72deg 100% 50%)"/>
    <path d="M0 1C0 0.2455709687966685 0.2455709687966685 0 1 0V1Z" style="fill: hsl(64.8deg 100% 50%)"/>
    <path d="M0 1C0 0.2862711776495286 0.2862711776495286 0 1 0V1Z" style="fill: hsl(57.6deg 100% 50%)"/>
    <path d="M0 1C0 0.30363396653894037 0.30363396653894037 0 1 0V1Z" style="fill: hsl(50.400000000000006deg 100% 50%)"/>
    <path d="M0 1C0 0.30363396653894037 0.30363396653894037 0 1 0V1Z" style="fill: hsl(43.199999999999996deg 100% 50%)"/>
    <path d="M0 1C0 0.44799117171326863 0.44799117171326863 0 1 0V1Z" style="fill: hsl(36deg 100% 50%)"/>
    <path d="M0 1C0 0.5229215959814854 0.5229215959814854 0 1 0V1Z" style="fill: hsl(28.8deg 100% 50%)"/>
    <path d="M0 1C0 0.6099652086540247 0.6099652086540247 0 1 0V1Z" style="fill: hsl(21.599999999999998deg 100% 50%)"/>
    <path d="M0 1C0 0.7134905834422033 0.7134905834422033 0 1 0V1Z" style="fill: hsl(14.4deg 100% 50%)"/>
    <path d="M0 1C0 0.8417918712007229 0.8417918712007229 0 1 0V1Z" style="fill: hsl(7.2deg 100% 50%)"/>
    <path d="M0 1C0 0.9999999956298696 0.9999999956298696 0 1 0V1Z" style="fill: hsl(0deg 100% 50%)"/>
</svg>