<?xml version="1.0" encoding="utf-8"?>
<svg width="1920" height="1080" viewBox="0 0 160 90" fill="none" stroke="none" version="1.1" xmlns:xlink="http://www.w3.org/1999/xlink" xmlns="http://www.w3.org/2000/svg">
  <defs>
    <path id="path_1" d="M160 0L160 0L160 90L0 90L0 0L160 0Z" />
    <rect id="rect_2" x="0" y="0" width="160" height="90" />
    <clipPath id="clip_path_3">
      <use xlink:href="#rect_2" />
    </clipPath>
    <filter color-interpolation-filters="sRGB" x="-120" y="-49" width="122" height="51" id="filter_4">
      <feFlood flood-opacity="0" result="BackgroundImageFix_1" />
      <feBlend mode="normal" in="SourceGraphic" in2="BackgroundImageFix_1" result="Shape_2" />
      <feGaussianBlur stdDeviation="15" />
    </filter>
  </defs>
  <g id="vine" opacity="1" clip-path="url(#clip_path_3)">
    <g>
      <use xlink:href="#path_1" style="fill:#111D1D;fill-rule:evenodd;mix-blend-mode:normal;" />
      <g>
        <g style="mix-blend-mode:normal;" transform="translate(46 11)">
          <path d="M12.138 34.646Q11.22 34.646 10.625 34.221Q10.03 33.796 9.656 32.946L0.782 13.022Q0.408 12.172 0.578 11.526Q0.748 10.88 1.292 10.506Q1.836 10.132 2.584 10.132Q3.57 10.132 4.063 10.557Q4.556 10.982 4.896 11.832L12.954 30.498L11.492 30.498L19.516 11.798Q19.89 10.982 20.4 10.557Q20.91 10.132 21.828 10.132Q22.576 10.132 23.069 10.506Q23.562 10.88 23.698 11.526Q23.834 12.172 23.46 13.022L14.586 32.946Q14.212 33.796 13.651 34.221Q13.09 34.646 12.138 34.646ZM29.26 34.612Q28.24 34.612 27.696 34Q27.152 33.388 27.152 32.3L27.152 19.822Q27.152 18.7 27.696 18.105Q28.24 17.51 29.26 17.51Q30.28 17.51 30.841 18.105Q31.402 18.7 31.402 19.822L31.402 32.3Q31.402 33.388 30.858 34Q30.314 34.612 29.26 34.612ZM29.26 14.348Q28.07 14.348 27.407 13.753Q26.744 13.158 26.744 12.104Q26.744 11.016 27.407 10.438Q28.07 9.86 29.26 9.86Q30.484 9.86 31.13 10.438Q31.776 11.016 31.776 12.104Q31.776 13.158 31.13 13.753Q30.484 14.348 29.26 14.348ZM36.93 34.646Q35.91 34.646 35.366 34.085Q34.822 33.524 34.822 32.47L34.822 19.618Q34.822 18.564 35.366 18.02Q35.91 17.476 36.896 17.476Q37.882 17.476 38.426 18.02Q38.97 18.564 38.97 19.618L38.97 21.93L38.596 21.08Q39.344 19.278 40.925 18.343Q42.506 17.408 44.512 17.408Q46.518 17.408 47.81 18.156Q49.102 18.904 49.748 20.417Q50.394 21.93 50.394 24.242L50.394 32.47Q50.394 33.524 49.85 34.085Q49.306 34.646 48.286 34.646Q47.266 34.646 46.705 34.085Q46.144 33.524 46.144 32.47L46.144 24.446Q46.144 22.508 45.413 21.624Q44.682 20.74 43.152 20.74Q41.282 20.74 40.177 21.913Q39.072 23.086 39.072 25.024L39.072 32.47Q39.072 34.646 36.93 34.646ZM61.906 34.714Q59.084 34.714 57.044 33.66Q55.004 32.606 53.899 30.668Q52.794 28.73 52.794 26.078Q52.794 23.494 53.865 21.556Q54.936 19.618 56.823 18.513Q58.71 17.408 61.124 17.408Q62.892 17.408 64.303 17.986Q65.714 18.564 66.717 19.652Q67.72 20.74 68.247 22.287Q68.774 23.834 68.774 25.772Q68.774 26.384 68.349 26.707Q67.924 27.03 67.142 27.03L56.228 27.03L56.228 24.582L65.782 24.582L65.238 25.092Q65.238 23.528 64.779 22.474Q64.32 21.42 63.453 20.859Q62.586 20.298 61.294 20.298Q59.866 20.298 58.863 20.961Q57.86 21.624 57.333 22.831Q56.806 24.038 56.806 25.704L56.806 25.942Q56.806 28.73 58.115 30.107Q59.424 31.484 61.974 31.484Q62.858 31.484 63.963 31.263Q65.068 31.042 66.054 30.498Q66.768 30.09 67.312 30.141Q67.856 30.192 68.179 30.532Q68.502 30.872 68.57 31.365Q68.638 31.858 68.383 32.368Q68.128 32.878 67.516 33.252Q66.326 34 64.779 34.357Q63.232 34.714 61.906 34.714Z" style="fill:#00FF99;" />
        </g>
        <path id="Oval" d="M0 25.5C0 11.4167 27.3106 0 61 0C94.6894 0 122 11.4167 122 25.5C122 39.5833 94.6894 51 61 51C27.3106 51 0 39.5833 0 25.5Z" style="fill:#182B2B;fill-rule:evenodd;fill-opacity:0.859;filter:url(#filter_4);mix-blend-mode:normal;" transform="translate(19 62)" />
        <g style="mix-blend-mode:normal;" transform="translate(32 53)">
          <path d="M1.32102 14.5313L1.32102 3.62216L5.13494 3.62216Q6.27486 3.62216 7.01527 4.01367Q7.75568 4.40518 8.1179 5.06303Q8.48011 5.72088 8.48011 6.51989Q8.48011 7.22301 8.23242 7.68111Q7.98473 8.1392 7.58256 8.40554Q7.1804 8.67188 6.71165 8.79972L6.71165 8.90625Q7.21236 8.93821 7.7184 9.25781Q8.22443 9.57742 8.56534 10.174Q8.90625 10.7706 8.90625 11.6335Q8.90625 12.4538 8.53338 13.109Q8.16051 13.7642 7.35618 14.1477Q6.55185 14.5313 5.26278 14.5313L1.32102 14.5313ZM2.64205 13.3594L5.26278 13.3594Q6.55717 13.3594 7.10316 12.856Q7.64915 12.3526 7.64915 11.6335Q7.64915 11.0795 7.36683 10.6081Q7.08452 10.1367 6.5625 9.85174Q6.04048 9.56676 5.3267 9.56676L2.64205 9.56676L2.64205 13.3594ZM2.64205 8.41619L5.09233 8.41619Q5.98722 8.41619 6.60511 7.8995Q7.22301 7.38281 7.22301 6.51989Q7.22301 5.80078 6.7223 5.29741Q6.22159 4.79403 5.13494 4.79403L2.64205 4.79403L2.64205 8.41619ZM15.5653 11.1861L15.5653 6.34943L16.8224 6.34943L16.8224 14.5313L15.5653 14.5313L15.5653 13.1463L15.4801 13.1463Q15.1925 13.7695 14.5852 14.2037Q13.978 14.6378 13.0511 14.6378Q11.9006 14.6378 11.1548 13.8761Q10.4091 13.1143 10.4091 11.5483L10.4091 6.34943L11.6662 6.34943L11.6662 11.4631Q11.6662 12.358 12.1696 12.8906Q12.6729 13.4233 13.456 13.4233Q13.9247 13.4233 14.4121 13.1836Q14.8995 12.9439 15.2324 12.4485Q15.5653 11.9531 15.5653 11.1861ZM18.6236 14.5313L18.6236 6.34943L19.8807 6.34943L19.8807 14.5313L18.6236 14.5313ZM19.2628 4.9858Q18.8952 4.9858 18.6316 4.73544Q18.3679 4.48509 18.3679 4.13352Q18.3679 3.78196 18.6316 3.5316Q18.8952 3.28125 19.2628 3.28125Q19.6303 3.28125 19.894 3.5316Q20.1577 3.78196 20.1577 4.13352Q20.1577 4.48509 19.894 4.73544Q19.6303 4.9858 19.2628 4.9858ZM22.9389 3.62216L22.9389 14.5313L21.6818 14.5313L21.6818 3.62216L22.9389 3.62216ZM27.8295 14.7017Q26.8068 14.7017 26.0238 14.1824Q25.2408 13.663 24.7987 12.7122Q24.3565 11.7614 24.3565 10.4616Q24.3565 9.17258 24.7987 8.22443Q25.2408 7.27628 26.0291 6.75959Q26.8175 6.2429 27.8509 6.2429Q28.6499 6.2429 29.1159 6.50657Q29.582 6.77024 29.8297 7.10316Q30.0774 7.43608 30.2159 7.64915L30.3224 7.64915L30.3224 3.62216L31.5795 3.62216L31.5795 14.5313L30.3651 14.5313L30.3651 13.2741L30.2159 13.2741Q30.0774 13.4979 29.8217 13.8361Q29.5661 14.1744 29.092 14.438Q28.6179 14.7017 27.8295 14.7017ZM28 13.5724Q29.1346 13.5724 29.7392 12.7015Q30.3438 11.8306 30.3438 10.4403Q30.3438 9.06605 29.7472 8.2191Q29.1506 7.37216 28 7.37216Q27.201 7.37216 26.671 7.77965Q26.141 8.18715 25.8773 8.88228Q25.6136 9.57741 25.6136 10.4403Q25.6136 11.3139 25.8826 12.025Q26.1516 12.7362 26.6816 13.1543Q27.2116 13.5724 28 13.5724ZM37.8878 14.5313L36.5028 14.5313L40.5085 3.62216L41.8722 3.62216L45.8778 14.5313L44.4929 14.5313L43.3956 11.4418L38.9851 11.4418L37.8878 14.5313ZM39.4006 10.2699L42.9801 10.2699L41.233 5.34801L41.1477 5.34801L39.4006 10.2699ZM48.169 9.60938L48.169 14.5313L46.9119 14.5313L46.9119 6.34943L48.1264 6.34943L48.1264 7.62784L48.233 7.62784Q48.5206 7.00462 49.1065 6.62376Q49.6925 6.2429 50.6193 6.2429Q51.8604 6.2429 52.6248 7.00462Q53.3892 7.76634 53.3892 9.33239L53.3892 14.5313L52.1321 14.5313L52.1321 9.41761Q52.1321 8.45348 51.6314 7.91282Q51.1307 7.37216 50.2571 7.37216Q49.3569 7.37216 48.763 7.95543Q48.169 8.53871 48.169 9.60938ZM55.7017 17.5994Q55.3821 17.5994 55.1318 17.5488Q54.8814 17.4982 54.7855 17.4503L55.1051 16.3423Q55.5632 16.4595 55.9148 16.4276Q56.2663 16.3956 56.5407 16.1159Q56.815 15.8363 57.044 15.2131L57.2784 14.5739L54.2528 6.34943L55.6165 6.34943L57.875 12.8693L57.9602 12.8693L60.2188 6.34943L61.5824 6.34943L58.1094 15.7244Q57.4116 17.5994 55.7017 17.5994ZM66.3026 6.34943L66.3026 7.41477L64.5554 7.41477L64.5554 12.1875Q64.5554 12.7202 64.7125 12.9838Q64.8697 13.2475 65.1174 13.3354Q65.3651 13.4233 65.6421 13.4233Q65.8498 13.4233 65.983 13.3993Q66.1161 13.3754 66.196 13.3594L66.4517 14.4886Q66.3239 14.5366 66.0948 14.5872Q65.8658 14.6378 65.5142 14.6378Q64.9815 14.6378 64.4728 14.4087Q63.9641 14.1797 63.6312 13.7109Q63.2983 13.2422 63.2983 12.5284L63.2983 7.41477L62.0625 7.41477L62.0625 6.34943L63.2983 6.34943L63.2983 4.3892L64.5554 4.3892L64.5554 6.34943L66.3026 6.34943ZM69.1264 9.60938L69.1264 14.5313L67.8693 14.5313L67.8693 3.62216L69.1264 3.62216L69.1264 7.62784L69.233 7.62784Q69.5206 6.99396 70.0985 6.61843Q70.6765 6.2429 71.6406 6.2429Q72.8977 6.2429 73.6648 6.99929Q74.4318 7.75568 74.4318 9.33239L74.4318 14.5313L73.1747 14.5313L73.1747 9.41761Q73.1747 8.44283 72.6713 7.90749Q72.168 7.37216 71.2784 7.37216Q70.3462 7.37216 69.7363 7.95543Q69.1264 8.53871 69.1264 9.60938ZM76.2329 14.5313L76.2329 6.34943L77.4901 6.34943L77.4901 14.5313L76.2329 14.5313ZM76.8722 4.9858Q76.5046 4.9858 76.2409 4.73544Q75.9773 4.48509 75.9773 4.13352Q75.9773 3.78196 76.2409 3.5316Q76.5046 3.28125 76.8722 3.28125Q77.2397 3.28125 77.5034 3.5316Q77.767 3.78196 77.767 4.13352Q77.767 4.48509 77.5034 4.73544Q77.2397 4.9858 76.8722 4.9858ZM80.5483 9.60938L80.5483 14.5313L79.2912 14.5313L79.2912 6.34943L80.5057 6.34943L80.5057 7.62784L80.6122 7.62784Q80.8998 7.00462 81.4858 6.62376Q82.0717 6.2429 82.9986 6.2429Q84.2397 6.2429 85.0041 7.00462Q85.7685 7.76634 85.7685 9.33239L85.7685 14.5313L84.5114 14.5313L84.5114 9.41761Q84.5114 8.45348 84.0106 7.91282Q83.5099 7.37216 82.6364 7.37216Q81.7361 7.37216 81.1422 7.95543Q80.5483 8.53871 80.5483 9.60938ZM90.8722 17.7699Q89.5032 17.7699 88.7068 17.2718Q87.9105 16.7738 87.527 16.1293L88.5284 15.4261Q88.6989 15.6499 88.9599 15.9402Q89.2209 16.2305 89.6763 16.4462Q90.1317 16.6619 90.8722 16.6619Q91.8629 16.6619 92.5075 16.1825Q93.152 15.7031 93.152 14.6804L93.152 13.0185L93.0454 13.0185Q92.907 13.2422 92.6539 13.5698Q92.4009 13.8974 91.9295 14.1504Q91.4581 14.4034 90.6591 14.4034Q89.6683 14.4034 88.8826 13.9347Q88.0969 13.4659 87.6415 12.571Q87.1861 11.6761 87.1861 10.3977Q87.1861 9.14063 87.6282 8.20579Q88.0703 7.27095 88.8587 6.75692Q89.647 6.2429 90.6804 6.2429Q91.4794 6.2429 91.9508 6.50657Q92.4222 6.77024 92.6752 7.10316Q92.9283 7.43608 93.0668 7.64915L93.1946 7.64915L93.1946 6.34943L94.4091 6.34943L94.4091 14.7656Q94.4091 15.8203 93.9323 16.4835Q93.4556 17.1467 92.6539 17.4583Q91.8523 17.7699 90.8722 17.7699ZM90.8295 13.2741Q91.9641 13.2741 92.5687 12.5044Q93.1733 11.7347 93.1733 10.3764Q93.1733 9.05007 92.5767 8.21111Q91.9801 7.37216 90.8295 7.37216Q90.0305 7.37216 89.5005 7.77699Q88.9705 8.18182 88.7068 8.86364Q88.4432 9.54545 88.4432 10.3764Q88.4432 11.6548 89.0451 12.4645Q89.647 13.2741 90.8295 13.2741Z" style="fill:#2A8D72;" />
        </g>
      </g>
    </g>
  </g>
</svg>